<svg xmlns="http://www.w3.org/2000/svg" xmlns:xlink="http://www.w3.org/1999/xlink" width="500" zoomAndPan="magnify" viewBox="0 0 375 374.999991" height="500" preserveAspectRatio="xMidYMid meet" version="1.0"><defs><clipPath id="36edbca03a"><path d="M 36.777344 43 L 337.527344 43 L 337.527344 343.828125 L 36.777344 343.828125 Z M 36.777344 43 " clip-rule="nonzero"/></clipPath><clipPath id="3df6061958"><path d="M 36.777344 31.078125 L 337.527344 31.078125 L 337.527344 332 L 36.777344 332 Z M 36.777344 31.078125 " clip-rule="nonzero"/></clipPath><clipPath id="6f748c13d8"><path d="M 82.042969 31.058594 L 292.265625 31.058594 C 293.746094 31.058594 295.226562 31.132812 296.699219 31.277344 C 298.175781 31.421875 299.640625 31.640625 301.09375 31.929688 C 302.546875 32.21875 303.980469 32.578125 305.398438 33.007812 C 306.820312 33.4375 308.210938 33.9375 309.582031 34.503906 C 310.949219 35.070312 312.289062 35.703125 313.59375 36.402344 C 314.902344 37.097656 316.171875 37.859375 317.40625 38.683594 C 318.636719 39.503906 319.824219 40.386719 320.972656 41.328125 C 322.117188 42.265625 323.214844 43.261719 324.261719 44.308594 C 325.308594 45.355469 326.304688 46.453125 327.242188 47.597656 C 328.183594 48.742188 329.066406 49.929688 329.890625 51.160156 C 330.710938 52.394531 331.472656 53.664062 332.171875 54.96875 C 332.871094 56.277344 333.503906 57.613281 334.070312 58.980469 C 334.636719 60.351562 335.136719 61.742188 335.566406 63.160156 C 335.996094 64.578125 336.355469 66.015625 336.644531 67.46875 C 336.933594 68.917969 337.152344 70.382812 337.296875 71.859375 C 337.441406 73.332031 337.515625 74.808594 337.515625 76.289062 L 337.515625 286.425781 C 337.515625 287.90625 337.441406 289.382812 337.296875 290.859375 C 337.152344 292.332031 336.933594 293.796875 336.644531 295.25 C 336.355469 296.703125 335.996094 298.136719 335.566406 299.554688 C 335.136719 300.972656 334.636719 302.367188 334.070312 303.734375 C 333.503906 305.101562 332.871094 306.441406 332.171875 307.746094 C 331.472656 309.054688 330.710938 310.324219 329.890625 311.554688 C 329.066406 312.785156 328.183594 313.976562 327.242188 315.121094 C 326.304688 316.265625 325.308594 317.359375 324.261719 318.410156 C 323.214844 319.457031 322.117188 320.449219 320.972656 321.390625 C 319.824219 322.328125 318.636719 323.210938 317.40625 324.035156 C 316.171875 324.855469 314.902344 325.617188 313.59375 326.316406 C 312.289062 327.015625 310.949219 327.648438 309.582031 328.214844 C 308.210938 328.78125 306.820312 329.277344 305.398438 329.710938 C 303.980469 330.140625 302.546875 330.5 301.09375 330.789062 C 299.640625 331.078125 298.175781 331.292969 296.699219 331.4375 C 295.226562 331.585938 293.746094 331.65625 292.265625 331.65625 L 82.042969 331.65625 C 80.5625 331.65625 79.082031 331.585938 77.609375 331.4375 C 76.132812 331.292969 74.667969 331.078125 73.214844 330.789062 C 71.761719 330.5 70.324219 330.140625 68.90625 329.710938 C 67.488281 329.277344 66.09375 328.78125 64.726562 328.214844 C 63.355469 327.648438 62.019531 327.015625 60.710938 326.316406 C 59.40625 325.617188 58.136719 324.855469 56.902344 324.035156 C 55.671875 323.210938 54.480469 322.328125 53.335938 321.390625 C 52.191406 320.449219 51.09375 319.457031 50.046875 318.410156 C 49 317.359375 48.003906 316.265625 47.0625 315.121094 C 46.125 313.976562 45.242188 312.785156 44.417969 311.554688 C 43.59375 310.324219 42.835938 309.054688 42.136719 307.746094 C 41.4375 306.441406 40.804688 305.101562 40.238281 303.734375 C 39.671875 302.367188 39.171875 300.972656 38.742188 299.554688 C 38.3125 298.136719 37.953125 296.703125 37.664062 295.25 C 37.371094 293.796875 37.15625 292.332031 37.011719 290.859375 C 36.867188 289.382812 36.792969 287.90625 36.792969 286.425781 L 36.792969 76.289062 C 36.792969 74.808594 36.867188 73.332031 37.011719 71.859375 C 37.15625 70.382812 37.371094 68.917969 37.664062 67.46875 C 37.953125 66.015625 38.3125 64.578125 38.742188 63.160156 C 39.171875 61.742188 39.671875 60.351562 40.238281 58.980469 C 40.804688 57.613281 41.4375 56.277344 42.136719 54.96875 C 42.835938 53.664062 43.59375 52.394531 44.417969 51.160156 C 45.242188 49.929688 46.125 48.742188 47.0625 47.597656 C 48.003906 46.453125 49 45.355469 50.046875 44.308594 C 51.09375 43.261719 52.191406 42.265625 53.335938 41.328125 C 54.480469 40.386719 55.671875 39.503906 56.902344 38.683594 C 58.136719 37.859375 59.40625 37.097656 60.710938 36.402344 C 62.019531 35.703125 63.355469 35.070312 64.726562 34.503906 C 66.09375 33.9375 67.488281 33.4375 68.90625 33.007812 C 70.324219 32.578125 71.761719 32.21875 73.214844 31.929688 C 74.667969 31.640625 76.132812 31.421875 77.609375 31.277344 C 79.082031 31.132812 80.5625 31.058594 82.042969 31.058594 Z M 82.042969 31.058594 " clip-rule="nonzero"/></clipPath><linearGradient x1="250" gradientTransform="matrix(0.871048, 0, 0, 0.870685, -30.608084, -30.218139)" y1="70.399994" x2="250" gradientUnits="userSpaceOnUse" y2="415.620986" id="1ddb2ba38c"><stop stop-opacity="1" stop-color="rgb(91.741943%, 91.737366%, 91.737366%)" offset="0"/><stop stop-opacity="1" stop-color="rgb(91.619873%, 91.603088%, 91.603088%)" offset="0.015625"/><stop stop-opacity="1" stop-color="rgb(91.377258%, 91.334534%, 91.334534%)" offset="0.03125"/><stop stop-opacity="1" stop-color="rgb(91.136169%, 91.067505%, 91.067505%)" offset="0.046875"/><stop stop-opacity="1" stop-color="rgb(90.893555%, 90.800476%, 90.800476%)" offset="0.0625"/><stop stop-opacity="1" stop-color="rgb(90.65094%, 90.533447%, 90.533447%)" offset="0.078125"/><stop stop-opacity="1" stop-color="rgb(90.408325%, 90.266418%, 90.266418%)" offset="0.09375"/><stop stop-opacity="1" stop-color="rgb(90.16571%, 89.99939%, 89.99939%)" offset="0.109375"/><stop stop-opacity="1" stop-color="rgb(89.923096%, 89.732361%, 89.732361%)" offset="0.125"/><stop stop-opacity="1" stop-color="rgb(89.680481%, 89.465332%, 89.465332%)" offset="0.140625"/><stop stop-opacity="1" stop-color="rgb(89.437866%, 89.196777%, 89.196777%)" offset="0.15625"/><stop stop-opacity="1" stop-color="rgb(89.195251%, 88.929749%, 88.929749%)" offset="0.171875"/><stop stop-opacity="1" stop-color="rgb(88.952637%, 88.66272%, 88.66272%)" offset="0.1875"/><stop stop-opacity="1" stop-color="rgb(88.710022%, 88.395691%, 88.395691%)" offset="0.203125"/><stop stop-opacity="1" stop-color="rgb(88.467407%, 88.128662%, 88.128662%)" offset="0.21875"/><stop stop-opacity="1" stop-color="rgb(88.224792%, 87.861633%, 87.861633%)" offset="0.234375"/><stop stop-opacity="1" stop-color="rgb(87.982178%, 87.594604%, 87.594604%)" offset="0.25"/><stop stop-opacity="1" stop-color="rgb(87.739563%, 87.32605%, 87.32605%)" offset="0.265625"/><stop stop-opacity="1" stop-color="rgb(87.498474%, 87.059021%, 87.059021%)" offset="0.28125"/><stop stop-opacity="1" stop-color="rgb(87.255859%, 86.791992%, 86.791992%)" offset="0.296875"/><stop stop-opacity="1" stop-color="rgb(87.013245%, 86.524963%, 86.524963%)" offset="0.3125"/><stop stop-opacity="1" stop-color="rgb(86.77063%, 86.257935%, 86.257935%)" offset="0.328125"/><stop stop-opacity="1" stop-color="rgb(86.528015%, 85.990906%, 85.990906%)" offset="0.34375"/><stop stop-opacity="1" stop-color="rgb(86.2854%, 85.723877%, 85.723877%)" offset="0.359375"/><stop stop-opacity="1" stop-color="rgb(86.042786%, 85.456848%, 85.456848%)" offset="0.375"/><stop stop-opacity="1" stop-color="rgb(85.800171%, 85.188293%, 85.188293%)" offset="0.390625"/><stop stop-opacity="1" stop-color="rgb(85.557556%, 84.921265%, 84.921265%)" offset="0.40625"/><stop stop-opacity="1" stop-color="rgb(85.314941%, 84.654236%, 84.654236%)" offset="0.421875"/><stop stop-opacity="1" stop-color="rgb(85.072327%, 84.387207%, 84.387207%)" offset="0.4375"/><stop stop-opacity="1" stop-color="rgb(84.829712%, 84.120178%, 84.120178%)" offset="0.453125"/><stop stop-opacity="1" stop-color="rgb(84.587097%, 83.853149%, 83.853149%)" offset="0.46875"/><stop stop-opacity="1" stop-color="rgb(84.344482%, 83.586121%, 83.586121%)" offset="0.484375"/><stop stop-opacity="1" stop-color="rgb(84.101868%, 83.317566%, 83.317566%)" offset="0.5"/><stop stop-opacity="1" stop-color="rgb(83.860779%, 83.050537%, 83.050537%)" offset="0.515625"/><stop stop-opacity="1" stop-color="rgb(83.618164%, 82.783508%, 82.783508%)" offset="0.53125"/><stop stop-opacity="1" stop-color="rgb(83.375549%, 82.516479%, 82.516479%)" offset="0.546875"/><stop stop-opacity="1" stop-color="rgb(83.132935%, 82.249451%, 82.249451%)" offset="0.5625"/><stop stop-opacity="1" stop-color="rgb(82.89032%, 81.982422%, 81.982422%)" offset="0.578125"/><stop stop-opacity="1" stop-color="rgb(82.647705%, 81.715393%, 81.715393%)" offset="0.59375"/><stop stop-opacity="1" stop-color="rgb(82.40509%, 81.448364%, 81.448364%)" offset="0.609375"/><stop stop-opacity="1" stop-color="rgb(82.162476%, 81.17981%, 81.17981%)" offset="0.625"/><stop stop-opacity="1" stop-color="rgb(81.919861%, 80.912781%, 80.912781%)" offset="0.640625"/><stop stop-opacity="1" stop-color="rgb(81.677246%, 80.645752%, 80.645752%)" offset="0.65625"/><stop stop-opacity="1" stop-color="rgb(81.434631%, 80.378723%, 80.378723%)" offset="0.671875"/><stop stop-opacity="1" stop-color="rgb(81.192017%, 80.111694%, 80.111694%)" offset="0.6875"/><stop stop-opacity="1" stop-color="rgb(80.949402%, 79.844666%, 79.844666%)" offset="0.703125"/><stop stop-opacity="1" stop-color="rgb(80.706787%, 79.577637%, 79.577637%)" offset="0.71875"/><stop stop-opacity="1" stop-color="rgb(80.464172%, 79.310608%, 79.310608%)" offset="0.734375"/><stop stop-opacity="1" stop-color="rgb(80.221558%, 79.042053%, 79.042053%)" offset="0.75"/><stop stop-opacity="1" stop-color="rgb(79.980469%, 78.775024%, 78.775024%)" offset="0.765625"/><stop stop-opacity="1" stop-color="rgb(79.737854%, 78.507996%, 78.507996%)" offset="0.78125"/><stop stop-opacity="1" stop-color="rgb(79.495239%, 78.240967%, 78.240967%)" offset="0.796875"/><stop stop-opacity="1" stop-color="rgb(79.252625%, 77.973938%, 77.973938%)" offset="0.8125"/><stop stop-opacity="1" stop-color="rgb(79.01001%, 77.706909%, 77.706909%)" offset="0.828125"/><stop stop-opacity="1" stop-color="rgb(78.767395%, 77.43988%, 77.43988%)" offset="0.84375"/><stop stop-opacity="1" stop-color="rgb(78.52478%, 77.171326%, 77.171326%)" offset="0.859375"/><stop stop-opacity="1" stop-color="rgb(78.282166%, 76.904297%, 76.904297%)" offset="0.875"/><stop stop-opacity="1" stop-color="rgb(78.039551%, 76.637268%, 76.637268%)" offset="0.890625"/><stop stop-opacity="1" stop-color="rgb(77.796936%, 76.370239%, 76.370239%)" offset="0.90625"/><stop stop-opacity="1" stop-color="rgb(77.554321%, 76.10321%, 76.10321%)" offset="0.921875"/><stop stop-opacity="1" stop-color="rgb(77.311707%, 75.836182%, 75.836182%)" offset="0.9375"/><stop stop-opacity="1" stop-color="rgb(77.069092%, 75.569153%, 75.569153%)" offset="0.953125"/><stop stop-opacity="1" stop-color="rgb(76.826477%, 75.302124%, 75.302124%)" offset="0.96875"/><stop stop-opacity="1" stop-color="rgb(76.583862%, 75.033569%, 75.033569%)" offset="0.984375"/><stop stop-opacity="1" stop-color="rgb(76.342773%, 74.766541%, 74.766541%)" offset="1"/></linearGradient><clipPath id="32cab0283a"><path d="M 77 71 L 298 71 L 298 292 L 77 292 Z M 77 71 " clip-rule="nonzero"/></clipPath><clipPath id="907acdd566"><path d="M 93.472656 71.339844 L 280.835938 71.339844 C 281.371094 71.339844 281.90625 71.367188 282.441406 71.417969 C 282.976562 71.472656 283.503906 71.550781 284.03125 71.65625 C 284.558594 71.757812 285.078125 71.890625 285.589844 72.046875 C 286.105469 72.199219 286.609375 72.382812 287.105469 72.585938 C 287.601562 72.792969 288.085938 73.019531 288.558594 73.273438 C 289.03125 73.527344 289.492188 73.800781 289.9375 74.101562 C 290.382812 74.398438 290.8125 74.71875 291.226562 75.058594 C 291.644531 75.398438 292.039062 75.757812 292.417969 76.136719 C 292.796875 76.515625 293.160156 76.914062 293.5 77.328125 C 293.839844 77.742188 294.160156 78.171875 294.457031 78.617188 C 294.753906 79.0625 295.03125 79.523438 295.285156 79.996094 C 295.535156 80.46875 295.765625 80.953125 295.96875 81.449219 C 296.175781 81.945312 296.355469 82.449219 296.511719 82.960938 C 296.667969 83.476562 296.796875 83.996094 296.902344 84.519531 C 297.007812 85.046875 297.085938 85.578125 297.140625 86.109375 C 297.191406 86.644531 297.21875 87.179688 297.21875 87.714844 L 297.21875 275 C 297.21875 275.535156 297.191406 276.070312 297.140625 276.605469 C 297.085938 277.140625 297.007812 277.667969 296.902344 278.195312 C 296.796875 278.722656 296.667969 279.242188 296.511719 279.753906 C 296.355469 280.265625 296.175781 280.773438 295.96875 281.265625 C 295.765625 281.761719 295.535156 282.246094 295.28125 282.71875 C 295.03125 283.191406 294.753906 283.652344 294.457031 284.097656 C 294.160156 284.542969 293.839844 284.972656 293.5 285.390625 C 293.160156 285.804688 292.796875 286.199219 292.417969 286.578125 C 292.039062 286.960938 291.644531 287.320312 291.226562 287.660156 C 290.8125 288 290.382812 288.320312 289.9375 288.617188 C 289.492188 288.914062 289.03125 289.191406 288.558594 289.441406 C 288.085938 289.695312 287.601562 289.925781 287.105469 290.128906 C 286.609375 290.335938 286.105469 290.515625 285.589844 290.671875 C 285.078125 290.828125 284.558594 290.957031 284.03125 291.0625 C 283.503906 291.167969 282.976562 291.246094 282.441406 291.296875 C 281.90625 291.351562 281.371094 291.375 280.835938 291.375 L 93.472656 291.375 C 92.9375 291.375 92.402344 291.351562 91.867188 291.296875 C 91.332031 291.246094 90.804688 291.167969 90.277344 291.0625 C 89.75 290.957031 89.230469 290.828125 88.71875 290.671875 C 88.203125 290.515625 87.699219 290.335938 87.203125 290.128906 C 86.707031 289.925781 86.222656 289.695312 85.75 289.441406 C 85.277344 289.191406 84.816406 288.914062 84.371094 288.617188 C 83.925781 288.320312 83.496094 288 83.078125 287.660156 C 82.664062 287.320312 82.269531 286.960938 81.886719 286.578125 C 81.507812 286.199219 81.148438 285.804688 80.808594 285.390625 C 80.46875 284.972656 80.148438 284.542969 79.851562 284.097656 C 79.554688 283.652344 79.277344 283.191406 79.023438 282.71875 C 78.773438 282.246094 78.542969 281.761719 78.335938 281.265625 C 78.132812 280.773438 77.949219 280.265625 77.796875 279.753906 C 77.640625 279.242188 77.507812 278.722656 77.40625 278.195312 C 77.300781 277.667969 77.222656 277.140625 77.167969 276.605469 C 77.117188 276.070312 77.089844 275.535156 77.089844 275 L 77.089844 87.714844 C 77.089844 87.179688 77.117188 86.644531 77.167969 86.109375 C 77.222656 85.578125 77.300781 85.046875 77.40625 84.519531 C 77.507812 83.996094 77.640625 83.476562 77.796875 82.960938 C 77.949219 82.449219 78.132812 81.945312 78.335938 81.449219 C 78.542969 80.953125 78.773438 80.46875 79.023438 79.996094 C 79.277344 79.523438 79.554688 79.0625 79.851562 78.617188 C 80.148438 78.171875 80.46875 77.742188 80.808594 77.328125 C 81.148438 76.914062 81.507812 76.515625 81.886719 76.136719 C 82.269531 75.757812 82.664062 75.398438 83.078125 75.058594 C 83.496094 74.71875 83.925781 74.398438 84.371094 74.101562 C 84.816406 73.800781 85.277344 73.527344 85.75 73.273438 C 86.222656 73.019531 86.707031 72.792969 87.203125 72.585938 C 87.699219 72.382812 88.203125 72.199219 88.71875 72.046875 C 89.230469 71.890625 89.75 71.757812 90.277344 71.65625 C 90.804688 71.550781 91.332031 71.472656 91.867188 71.417969 C 92.402344 71.367188 92.9375 71.339844 93.472656 71.339844 Z M 93.472656 71.339844 " clip-rule="nonzero"/></clipPath><linearGradient x1="250" gradientTransform="matrix(0.871048, 0, 0, 0.870685, -30.608084, -30.218139)" y1="369.357988" x2="250" gradientUnits="userSpaceOnUse" y2="116.641991" id="2852848109"><stop stop-opacity="1" stop-color="rgb(91.165161%, 91.099548%, 91.099548%)" offset="0"/><stop stop-opacity="1" stop-color="rgb(91.05835%, 90.982056%, 90.982056%)" offset="0.015625"/><stop stop-opacity="1" stop-color="rgb(90.844727%, 90.74707%, 90.74707%)" offset="0.03125"/><stop stop-opacity="1" stop-color="rgb(90.632629%, 90.513611%, 90.513611%)" offset="0.046875"/><stop stop-opacity="1" stop-color="rgb(90.419006%, 90.278625%, 90.278625%)" offset="0.0625"/><stop stop-opacity="1" stop-color="rgb(90.205383%, 90.04364%, 90.04364%)" offset="0.078125"/><stop stop-opacity="1" stop-color="rgb(89.993286%, 89.808655%, 89.808655%)" offset="0.09375"/><stop stop-opacity="1" stop-color="rgb(89.779663%, 89.573669%, 89.573669%)" offset="0.109375"/><stop stop-opacity="1" stop-color="rgb(89.567566%, 89.34021%, 89.34021%)" offset="0.125"/><stop stop-opacity="1" stop-color="rgb(89.353943%, 89.105225%, 89.105225%)" offset="0.140625"/><stop stop-opacity="1" stop-color="rgb(89.14032%, 88.870239%, 88.870239%)" offset="0.15625"/><stop stop-opacity="1" stop-color="rgb(88.928223%, 88.635254%, 88.635254%)" offset="0.171875"/><stop stop-opacity="1" stop-color="rgb(88.7146%, 88.400269%, 88.400269%)" offset="0.1875"/><stop stop-opacity="1" stop-color="rgb(88.502502%, 88.166809%, 88.166809%)" offset="0.203125"/><stop stop-opacity="1" stop-color="rgb(88.288879%, 87.931824%, 87.931824%)" offset="0.21875"/><stop stop-opacity="1" stop-color="rgb(88.076782%, 87.696838%, 87.696838%)" offset="0.234375"/><stop stop-opacity="1" stop-color="rgb(87.863159%, 87.461853%, 87.461853%)" offset="0.25"/><stop stop-opacity="1" stop-color="rgb(87.649536%, 87.226868%, 87.226868%)" offset="0.265625"/><stop stop-opacity="1" stop-color="rgb(87.437439%, 86.993408%, 86.993408%)" offset="0.28125"/><stop stop-opacity="1" stop-color="rgb(87.223816%, 86.758423%, 86.758423%)" offset="0.296875"/><stop stop-opacity="1" stop-color="rgb(87.011719%, 86.523438%, 86.523438%)" offset="0.3125"/><stop stop-opacity="1" stop-color="rgb(86.798096%, 86.288452%, 86.288452%)" offset="0.328125"/><stop stop-opacity="1" stop-color="rgb(86.585999%, 86.053467%, 86.053467%)" offset="0.34375"/><stop stop-opacity="1" stop-color="rgb(86.372375%, 85.820007%, 85.820007%)" offset="0.359375"/><stop stop-opacity="1" stop-color="rgb(86.158752%, 85.585022%, 85.585022%)" offset="0.375"/><stop stop-opacity="1" stop-color="rgb(85.946655%, 85.350037%, 85.350037%)" offset="0.390625"/><stop stop-opacity="1" stop-color="rgb(85.733032%, 85.115051%, 85.115051%)" offset="0.40625"/><stop stop-opacity="1" stop-color="rgb(85.520935%, 84.880066%, 84.880066%)" offset="0.421875"/><stop stop-opacity="1" stop-color="rgb(85.307312%, 84.646606%, 84.646606%)" offset="0.4375"/><stop stop-opacity="1" stop-color="rgb(85.095215%, 84.411621%, 84.411621%)" offset="0.453125"/><stop stop-opacity="1" stop-color="rgb(84.881592%, 84.176636%, 84.176636%)" offset="0.46875"/><stop stop-opacity="1" stop-color="rgb(84.667969%, 83.94165%, 83.94165%)" offset="0.484375"/><stop stop-opacity="1" stop-color="rgb(84.455872%, 83.706665%, 83.706665%)" offset="0.5"/><stop stop-opacity="1" stop-color="rgb(84.242249%, 83.473206%, 83.473206%)" offset="0.515625"/><stop stop-opacity="1" stop-color="rgb(84.030151%, 83.23822%, 83.23822%)" offset="0.53125"/><stop stop-opacity="1" stop-color="rgb(83.816528%, 83.003235%, 83.003235%)" offset="0.546875"/><stop stop-opacity="1" stop-color="rgb(83.602905%, 82.76825%, 82.76825%)" offset="0.5625"/><stop stop-opacity="1" stop-color="rgb(83.390808%, 82.533264%, 82.533264%)" offset="0.578125"/><stop stop-opacity="1" stop-color="rgb(83.177185%, 82.299805%, 82.299805%)" offset="0.59375"/><stop stop-opacity="1" stop-color="rgb(82.965088%, 82.064819%, 82.064819%)" offset="0.609375"/><stop stop-opacity="1" stop-color="rgb(82.751465%, 81.829834%, 81.829834%)" offset="0.625"/><stop stop-opacity="1" stop-color="rgb(82.539368%, 81.594849%, 81.594849%)" offset="0.640625"/><stop stop-opacity="1" stop-color="rgb(82.325745%, 81.359863%, 81.359863%)" offset="0.65625"/><stop stop-opacity="1" stop-color="rgb(82.112122%, 81.126404%, 81.126404%)" offset="0.671875"/><stop stop-opacity="1" stop-color="rgb(81.900024%, 80.891418%, 80.891418%)" offset="0.6875"/><stop stop-opacity="1" stop-color="rgb(81.686401%, 80.656433%, 80.656433%)" offset="0.703125"/><stop stop-opacity="1" stop-color="rgb(81.474304%, 80.421448%, 80.421448%)" offset="0.71875"/><stop stop-opacity="1" stop-color="rgb(81.260681%, 80.186462%, 80.186462%)" offset="0.734375"/><stop stop-opacity="1" stop-color="rgb(81.048584%, 79.953003%, 79.953003%)" offset="0.75"/><stop stop-opacity="1" stop-color="rgb(80.834961%, 79.718018%, 79.718018%)" offset="0.765625"/><stop stop-opacity="1" stop-color="rgb(80.621338%, 79.483032%, 79.483032%)" offset="0.78125"/><stop stop-opacity="1" stop-color="rgb(80.409241%, 79.248047%, 79.248047%)" offset="0.796875"/><stop stop-opacity="1" stop-color="rgb(80.195618%, 79.013062%, 79.013062%)" offset="0.8125"/><stop stop-opacity="1" stop-color="rgb(79.983521%, 78.779602%, 78.779602%)" offset="0.828125"/><stop stop-opacity="1" stop-color="rgb(79.769897%, 78.544617%, 78.544617%)" offset="0.84375"/><stop stop-opacity="1" stop-color="rgb(79.556274%, 78.309631%, 78.309631%)" offset="0.859375"/><stop stop-opacity="1" stop-color="rgb(79.344177%, 78.074646%, 78.074646%)" offset="0.875"/><stop stop-opacity="1" stop-color="rgb(79.130554%, 77.839661%, 77.839661%)" offset="0.890625"/><stop stop-opacity="1" stop-color="rgb(78.918457%, 77.606201%, 77.606201%)" offset="0.90625"/><stop stop-opacity="1" stop-color="rgb(78.704834%, 77.371216%, 77.371216%)" offset="0.921875"/><stop stop-opacity="1" stop-color="rgb(78.492737%, 77.13623%, 77.13623%)" offset="0.9375"/><stop stop-opacity="1" stop-color="rgb(78.279114%, 76.901245%, 76.901245%)" offset="0.953125"/><stop stop-opacity="1" stop-color="rgb(78.065491%, 76.66626%, 76.66626%)" offset="0.96875"/><stop stop-opacity="1" stop-color="rgb(77.853394%, 76.4328%, 76.4328%)" offset="0.984375"/><stop stop-opacity="1" stop-color="rgb(77.639771%, 76.197815%, 76.197815%)" offset="1"/></linearGradient></defs><g clip-path="url(#36edbca03a)"><path fill="#aeadad" d="M 82.042969 43.25 L 292.265625 43.25 C 293.746094 43.25 295.226562 43.320312 296.699219 43.46875 C 298.175781 43.613281 299.640625 43.828125 301.09375 44.117188 C 302.546875 44.40625 303.980469 44.765625 305.398438 45.195312 C 306.820312 45.628906 308.210938 46.125 309.582031 46.691406 C 310.949219 47.257812 312.289062 47.890625 313.59375 48.589844 C 314.902344 49.289062 316.171875 50.050781 317.40625 50.871094 C 318.636719 51.695312 319.824219 52.578125 320.972656 53.515625 C 322.117188 54.457031 323.214844 55.449219 324.261719 56.496094 C 325.308594 57.542969 326.304688 58.640625 327.242188 59.785156 C 328.183594 60.929688 329.066406 62.121094 329.890625 63.351562 C 330.710938 64.582031 331.472656 65.851562 332.171875 67.160156 C 332.871094 68.464844 333.503906 69.800781 334.070312 71.171875 C 334.636719 72.539062 335.136719 73.933594 335.566406 75.351562 C 335.996094 76.769531 336.355469 78.203125 336.644531 79.65625 C 336.933594 81.109375 337.152344 82.574219 337.296875 84.046875 C 337.441406 85.519531 337.515625 87 337.515625 88.480469 L 337.515625 298.613281 C 337.515625 300.097656 337.441406 301.574219 337.296875 303.046875 C 337.152344 304.523438 336.933594 305.988281 336.644531 307.4375 C 336.355469 308.890625 335.996094 310.328125 335.566406 311.746094 C 335.136719 313.164062 334.636719 314.554688 334.070312 315.925781 C 333.503906 317.292969 332.871094 318.628906 332.171875 319.9375 C 331.472656 321.242188 330.710938 322.511719 329.890625 323.746094 C 329.066406 324.976562 328.183594 326.164062 327.242188 327.308594 C 326.304688 328.453125 325.308594 329.550781 324.261719 330.597656 C 323.214844 331.644531 322.117188 332.640625 320.972656 333.578125 C 319.824219 334.519531 318.636719 335.402344 317.40625 336.222656 C 316.171875 337.046875 314.902344 337.808594 313.59375 338.503906 C 312.289062 339.203125 310.949219 339.835938 309.582031 340.402344 C 308.210938 340.96875 306.820312 341.46875 305.398438 341.898438 C 303.980469 342.328125 302.546875 342.6875 301.09375 342.976562 C 299.640625 343.265625 298.175781 343.484375 296.699219 343.628906 C 295.226562 343.773438 293.746094 343.847656 292.265625 343.847656 L 82.042969 343.847656 C 80.5625 343.847656 79.082031 343.773438 77.609375 343.628906 C 76.132812 343.484375 74.667969 343.265625 73.214844 342.976562 C 71.761719 342.6875 70.324219 342.328125 68.90625 341.898438 C 67.488281 341.46875 66.09375 340.96875 64.726562 340.402344 C 63.355469 339.835938 62.019531 339.203125 60.710938 338.503906 C 59.40625 337.808594 58.136719 337.046875 56.902344 336.222656 C 55.671875 335.402344 54.480469 334.519531 53.335938 333.578125 C 52.191406 332.640625 51.09375 331.644531 50.046875 330.597656 C 49 329.550781 48.003906 328.453125 47.0625 327.308594 C 46.125 326.164062 45.242188 324.976562 44.417969 323.746094 C 43.59375 322.511719 42.835938 321.242188 42.136719 319.9375 C 41.4375 318.628906 40.804688 317.292969 40.238281 315.925781 C 39.671875 314.554688 39.171875 313.164062 38.742188 311.746094 C 38.3125 310.328125 37.953125 308.890625 37.664062 307.4375 C 37.371094 305.988281 37.15625 304.523438 37.011719 303.046875 C 36.867188 301.574219 36.792969 300.097656 36.792969 298.613281 L 36.792969 88.480469 C 36.792969 87 36.867188 85.519531 37.011719 84.046875 C 37.15625 82.574219 37.371094 81.109375 37.664062 79.65625 C 37.953125 78.203125 38.3125 76.769531 38.742188 75.351562 C 39.171875 73.933594 39.671875 72.539062 40.238281 71.171875 C 40.804688 69.800781 41.4375 68.464844 42.136719 67.160156 C 42.835938 65.851562 43.59375 64.582031 44.417969 63.351562 C 45.242188 62.121094 46.125 60.929688 47.0625 59.785156 C 48.003906 58.640625 49 57.542969 50.046875 56.496094 C 51.09375 55.449219 52.191406 54.457031 53.335938 53.515625 C 54.480469 52.578125 55.671875 51.695312 56.902344 50.871094 C 58.136719 50.050781 59.40625 49.289062 60.710938 48.589844 C 62.019531 47.890625 63.355469 47.257812 64.726562 46.691406 C 66.09375 46.125 67.488281 45.628906 68.90625 45.195312 C 70.324219 44.765625 71.761719 44.40625 73.214844 44.117188 C 74.667969 43.828125 76.132812 43.613281 77.609375 43.46875 C 79.082031 43.320312 80.5625 43.25 82.042969 43.25 Z M 82.042969 43.25 " fill-opacity="1" fill-rule="nonzero"/></g><g clip-path="url(#3df6061958)"><g clip-path="url(#6f748c13d8)"><path fill="url(#1ddb2ba38c)" d="M 36.792969 31.078125 L 36.792969 331.65625 L 337.515625 331.65625 L 337.515625 31.078125 Z M 36.792969 31.078125 " fill-rule="nonzero"/></g></g><g clip-path="url(#32cab0283a)"><g clip-path="url(#907acdd566)"><path fill="url(#2852848109)" d="M 77.089844 71.339844 L 77.089844 291.375 L 297.21875 291.375 L 297.21875 71.339844 Z M 77.089844 71.339844 " fill-rule="nonzero"/></g></g><path fill="#b3afaf" d="M 280.835938 291.8125 L 93.472656 291.8125 C 92.921875 291.8125 92.371094 291.785156 91.824219 291.730469 C 91.277344 291.675781 90.734375 291.59375 90.191406 291.484375 C 89.652344 291.378906 89.121094 291.242188 88.59375 291.082031 C 88.066406 290.921875 87.546875 290.738281 87.039062 290.527344 C 86.53125 290.316406 86.035156 290.082031 85.546875 289.820312 C 85.0625 289.5625 84.589844 289.277344 84.132812 288.972656 C 83.675781 288.667969 83.234375 288.339844 82.808594 287.988281 C 82.382812 287.640625 81.976562 287.269531 81.585938 286.882812 C 81.195312 286.492188 80.828125 286.085938 80.476562 285.660156 C 80.128906 285.234375 79.800781 284.792969 79.496094 284.335938 C 79.1875 283.878906 78.90625 283.40625 78.644531 282.921875 C 78.386719 282.4375 78.152344 281.9375 77.941406 281.429688 C 77.730469 280.921875 77.542969 280.40625 77.382812 279.878906 C 77.222656 279.351562 77.089844 278.820312 76.980469 278.277344 C 76.871094 277.738281 76.792969 277.195312 76.738281 276.648438 C 76.683594 276.101562 76.65625 275.550781 76.65625 275 L 76.65625 87.714844 C 76.65625 87.164062 76.683594 86.617188 76.738281 86.070312 C 76.792969 85.519531 76.871094 84.976562 76.980469 84.4375 C 77.089844 83.898438 77.222656 83.363281 77.382812 82.839844 C 77.542969 82.3125 77.730469 81.792969 77.941406 81.285156 C 78.152344 80.777344 78.386719 80.28125 78.644531 79.796875 C 78.90625 79.308594 79.1875 78.839844 79.496094 78.378906 C 79.800781 77.921875 80.128906 77.480469 80.476562 77.054688 C 80.828125 76.632812 81.195312 76.222656 81.585938 75.835938 C 81.976562 75.445312 82.382812 75.074219 82.808594 74.726562 C 83.234375 74.378906 83.675781 74.050781 84.132812 73.742188 C 84.589844 73.4375 85.0625 73.15625 85.546875 72.894531 C 86.035156 72.636719 86.53125 72.402344 87.039062 72.191406 C 87.546875 71.980469 88.066406 71.792969 88.59375 71.632812 C 89.121094 71.472656 89.652344 71.339844 90.191406 71.230469 C 90.734375 71.125 91.277344 71.042969 91.824219 70.988281 C 92.371094 70.933594 92.921875 70.90625 93.472656 70.90625 L 280.835938 70.90625 C 281.386719 70.90625 281.933594 70.933594 282.484375 70.988281 C 283.03125 71.042969 283.574219 71.125 284.113281 71.230469 C 284.65625 71.339844 285.1875 71.472656 285.714844 71.632812 C 286.242188 71.792969 286.757812 71.980469 287.269531 72.191406 C 287.777344 72.402344 288.273438 72.636719 288.757812 72.894531 C 289.246094 73.15625 289.714844 73.4375 290.175781 73.742188 C 290.632812 74.050781 291.074219 74.378906 291.5 74.726562 C 291.925781 75.074219 292.332031 75.445312 292.722656 75.835938 C 293.109375 76.222656 293.480469 76.632812 293.828125 77.054688 C 294.179688 77.480469 294.507812 77.921875 294.8125 78.378906 C 295.117188 78.839844 295.402344 79.308594 295.660156 79.796875 C 295.921875 80.28125 296.15625 80.777344 296.367188 81.285156 C 296.578125 81.792969 296.765625 82.3125 296.925781 82.839844 C 297.085938 83.363281 297.21875 83.898438 297.328125 84.4375 C 297.433594 84.976562 297.515625 85.519531 297.570312 86.070312 C 297.625 86.617188 297.652344 87.164062 297.652344 87.714844 L 297.652344 275 C 297.652344 275.550781 297.625 276.101562 297.570312 276.648438 C 297.515625 277.195312 297.433594 277.738281 297.328125 278.277344 C 297.21875 278.820312 297.085938 279.351562 296.925781 279.878906 C 296.765625 280.40625 296.578125 280.921875 296.367188 281.429688 C 296.15625 281.9375 295.921875 282.4375 295.660156 282.921875 C 295.402344 283.40625 295.117188 283.878906 294.8125 284.335938 C 294.507812 284.792969 294.179688 285.234375 293.828125 285.660156 C 293.480469 286.085938 293.109375 286.492188 292.722656 286.882812 C 292.332031 287.269531 291.925781 287.640625 291.5 287.988281 C 291.074219 288.339844 290.632812 288.667969 290.175781 288.972656 C 289.714844 289.277344 289.246094 289.5625 288.757812 289.820312 C 288.273438 290.082031 287.777344 290.316406 287.269531 290.527344 C 286.757812 290.738281 286.242188 290.921875 285.714844 291.082031 C 285.1875 291.242188 284.65625 291.378906 284.113281 291.484375 C 283.574219 291.59375 283.03125 291.675781 282.484375 291.730469 C 281.933594 291.785156 281.386719 291.8125 280.835938 291.8125 Z M 93.472656 71.777344 C 92.949219 71.777344 92.429688 71.800781 91.910156 71.855469 C 91.390625 71.90625 90.875 71.984375 90.363281 72.085938 C 89.851562 72.1875 89.34375 72.3125 88.84375 72.464844 C 88.347656 72.617188 87.855469 72.792969 87.371094 72.992188 C 86.890625 73.195312 86.417969 73.417969 85.957031 73.664062 C 85.5 73.910156 85.050781 74.175781 84.617188 74.46875 C 84.183594 74.757812 83.765625 75.070312 83.359375 75.398438 C 82.957031 75.730469 82.570312 76.082031 82.203125 76.449219 C 81.832031 76.820312 81.480469 77.203125 81.152344 77.609375 C 80.820312 78.011719 80.507812 78.429688 80.21875 78.863281 C 79.929688 79.296875 79.660156 79.746094 79.414062 80.207031 C 79.167969 80.664062 78.945312 81.136719 78.746094 81.617188 C 78.542969 82.101562 78.367188 82.589844 78.214844 83.089844 C 78.0625 83.589844 77.9375 84.097656 77.835938 84.609375 C 77.734375 85.121094 77.65625 85.636719 77.605469 86.152344 C 77.550781 86.671875 77.527344 87.195312 77.527344 87.714844 L 77.527344 275 C 77.527344 275.523438 77.550781 276.042969 77.605469 276.5625 C 77.65625 277.082031 77.734375 277.597656 77.835938 278.109375 C 77.9375 278.621094 78.0625 279.125 78.214844 279.625 C 78.367188 280.125 78.542969 280.617188 78.746094 281.097656 C 78.945312 281.578125 79.167969 282.050781 79.414062 282.511719 C 79.660156 282.972656 79.929688 283.417969 80.21875 283.851562 C 80.507812 284.285156 80.820312 284.703125 81.152344 285.109375 C 81.480469 285.511719 81.832031 285.898438 82.203125 286.265625 C 82.570312 286.636719 82.957031 286.984375 83.359375 287.316406 C 83.765625 287.648438 84.183594 287.957031 84.617188 288.25 C 85.050781 288.539062 85.5 288.808594 85.957031 289.054688 C 86.417969 289.300781 86.890625 289.523438 87.371094 289.722656 C 87.855469 289.921875 88.347656 290.097656 88.84375 290.25 C 89.34375 290.402344 89.851562 290.527344 90.363281 290.632812 C 90.875 290.734375 91.390625 290.8125 91.910156 290.863281 C 92.429688 290.914062 92.949219 290.941406 93.472656 290.941406 L 280.835938 290.941406 C 281.355469 290.941406 281.878906 290.914062 282.398438 290.863281 C 282.917969 290.8125 283.433594 290.734375 283.945312 290.632812 C 284.457031 290.527344 284.960938 290.402344 285.460938 290.25 C 285.960938 290.097656 286.453125 289.921875 286.933594 289.722656 C 287.417969 289.523438 287.886719 289.300781 288.347656 289.054688 C 288.808594 288.808594 289.257812 288.539062 289.691406 288.25 C 290.125 287.957031 290.542969 287.648438 290.945312 287.316406 C 291.351562 286.984375 291.738281 286.636719 292.105469 286.265625 C 292.476562 285.898438 292.824219 285.511719 293.15625 285.109375 C 293.488281 284.703125 293.796875 284.285156 294.089844 283.851562 C 294.378906 283.417969 294.648438 282.972656 294.894531 282.511719 C 295.140625 282.050781 295.363281 281.578125 295.5625 281.097656 C 295.761719 280.617188 295.9375 280.125 296.089844 279.625 C 296.242188 279.125 296.371094 278.621094 296.472656 278.109375 C 296.574219 277.597656 296.652344 277.082031 296.703125 276.5625 C 296.753906 276.042969 296.78125 275.523438 296.78125 275 L 296.78125 87.714844 C 296.78125 87.195312 296.753906 86.671875 296.703125 86.152344 C 296.652344 85.636719 296.574219 85.121094 296.472656 84.609375 C 296.371094 84.097656 296.242188 83.589844 296.089844 83.089844 C 295.9375 82.589844 295.761719 82.101562 295.5625 81.617188 C 295.363281 81.136719 295.140625 80.664062 294.894531 80.207031 C 294.648438 79.746094 294.378906 79.296875 294.089844 78.863281 C 293.796875 78.429688 293.488281 78.011719 293.15625 77.609375 C 292.824219 77.203125 292.476562 76.820312 292.105469 76.449219 C 291.738281 76.082031 291.351562 75.730469 290.945312 75.398438 C 290.542969 75.070312 290.125 74.757812 289.691406 74.46875 C 289.257812 74.175781 288.808594 73.910156 288.347656 73.664062 C 287.886719 73.417969 287.417969 73.195312 286.933594 72.992188 C 286.453125 72.792969 285.960938 72.617188 285.460938 72.464844 C 284.960938 72.3125 284.457031 72.1875 283.945312 72.085938 C 283.433594 71.984375 282.917969 71.90625 282.398438 71.855469 C 281.878906 71.800781 281.355469 71.777344 280.835938 71.777344 Z M 93.472656 71.777344 " fill-opacity="1" fill-rule="nonzero"/><path fill="#444040" d="M 227.144531 237.800781 L 209.714844 237.800781 L 209.714844 193.125 L 164.667969 193.125 L 164.667969 237.800781 L 147.160156 237.800781 L 147.160156 137.105469 L 164.667969 137.105469 L 164.667969 179.015625 L 209.714844 179.015625 L 209.714844 137.105469 L 227.148438 137.105469 Z M 227.144531 237.800781 " fill-opacity="1" fill-rule="nonzero"/></svg>