<svg xmlns="http://www.w3.org/2000/svg" xmlns:xlink="http://www.w3.org/1999/xlink" width="500" zoomAndPan="magnify" viewBox="0 0 375 374.999991" height="500" preserveAspectRatio="xMidYMid meet" version="1.0"><defs><clipPath id="3f2a3e982a"><path d="M 37 43 L 337.75 43 L 337.75 344.433594 L 37 344.433594 Z M 37 43 " clip-rule="nonzero"/></clipPath><clipPath id="652b545025"><path d="M 37 30.933594 L 337.75 30.933594 L 337.75 333 L 37 333 Z M 37 30.933594 " clip-rule="nonzero"/></clipPath><clipPath id="5977b94faf"><path d="M 82.269531 30.914062 L 292.484375 30.914062 C 293.964844 30.914062 295.441406 30.988281 296.917969 31.132812 C 298.394531 31.277344 299.855469 31.496094 301.308594 31.785156 C 302.761719 32.074219 304.199219 32.4375 305.617188 32.867188 C 307.035156 33.296875 308.429688 33.796875 309.796875 34.367188 C 311.167969 34.933594 312.503906 35.570312 313.8125 36.269531 C 315.121094 36.96875 316.390625 37.730469 317.621094 38.554688 C 318.855469 39.382812 320.042969 40.265625 321.1875 41.207031 C 322.332031 42.148438 323.429688 43.144531 324.476562 44.195312 C 325.527344 45.246094 326.519531 46.34375 327.460938 47.492188 C 328.398438 48.640625 329.28125 49.832031 330.105469 51.066406 C 330.929688 52.300781 331.691406 53.574219 332.386719 54.882812 C 333.085938 56.191406 333.71875 57.53125 334.285156 58.902344 C 334.855469 60.277344 335.351562 61.671875 335.78125 63.09375 C 336.210938 64.515625 336.574219 65.953125 336.863281 67.410156 C 337.152344 68.867188 337.367188 70.332031 337.511719 71.8125 C 337.660156 73.289062 337.730469 74.769531 337.730469 76.253906 L 337.730469 286.894531 C 337.730469 288.378906 337.660156 289.859375 337.511719 291.335938 C 337.367188 292.816406 337.152344 294.28125 336.863281 295.738281 C 336.574219 297.195312 336.210938 298.632812 335.78125 300.054688 C 335.351562 301.476562 334.855469 302.871094 334.285156 304.242188 C 333.71875 305.617188 333.085938 306.957031 332.386719 308.265625 C 331.691406 309.574219 330.929688 310.847656 330.105469 312.082031 C 329.28125 313.316406 328.398438 314.507812 327.460938 315.65625 C 326.519531 316.804688 325.527344 317.902344 324.476562 318.953125 C 323.429688 320.003906 322.332031 321 321.1875 321.941406 C 320.042969 322.882812 318.855469 323.765625 317.621094 324.589844 C 316.390625 325.417969 315.121094 326.179688 313.8125 326.878906 C 312.503906 327.578125 311.167969 328.214844 309.796875 328.78125 C 308.429688 329.351562 307.035156 329.847656 305.617188 330.28125 C 304.199219 330.710938 302.761719 331.070312 301.308594 331.363281 C 299.855469 331.652344 298.394531 331.867188 296.917969 332.015625 C 295.441406 332.160156 293.964844 332.234375 292.484375 332.234375 L 82.269531 332.234375 C 80.785156 332.234375 79.308594 332.160156 77.832031 332.015625 C 76.359375 331.867188 74.894531 331.652344 73.441406 331.363281 C 71.988281 331.070312 70.550781 330.710938 69.132812 330.28125 C 67.714844 329.847656 66.320312 329.351562 64.953125 328.78125 C 63.582031 328.214844 62.246094 327.578125 60.9375 326.878906 C 59.632812 326.179688 58.363281 325.417969 57.128906 324.589844 C 55.898438 323.765625 54.707031 322.882812 53.5625 321.941406 C 52.417969 321 51.320312 320.003906 50.273438 318.953125 C 49.226562 317.902344 48.230469 316.804688 47.289062 315.65625 C 46.351562 314.507812 45.46875 313.316406 44.644531 312.082031 C 43.820312 310.847656 43.0625 309.574219 42.363281 308.265625 C 41.664062 306.957031 41.03125 305.617188 40.464844 304.242188 C 39.898438 302.871094 39.398438 301.476562 38.96875 300.054688 C 38.539062 298.632812 38.179688 297.195312 37.890625 295.738281 C 37.601562 294.28125 37.382812 292.816406 37.238281 291.335938 C 37.09375 289.859375 37.019531 288.378906 37.019531 286.894531 L 37.019531 76.253906 C 37.019531 74.769531 37.09375 73.289062 37.238281 71.8125 C 37.382812 70.332031 37.601562 68.867188 37.890625 67.410156 C 38.179688 65.953125 38.539062 64.515625 38.96875 63.09375 C 39.398438 61.671875 39.898438 60.277344 40.464844 58.902344 C 41.03125 57.53125 41.664062 56.191406 42.363281 54.882812 C 43.0625 53.574219 43.820312 52.300781 44.644531 51.066406 C 45.46875 49.832031 46.351562 48.640625 47.289062 47.492188 C 48.230469 46.34375 49.226562 45.246094 50.273438 44.195312 C 51.320312 43.144531 52.417969 42.148438 53.5625 41.207031 C 54.707031 40.265625 55.898438 39.382812 57.128906 38.554688 C 58.363281 37.730469 59.632812 36.96875 60.9375 36.269531 C 62.246094 35.570312 63.582031 34.933594 64.953125 34.367188 C 66.320312 33.796875 67.714844 33.296875 69.132812 32.867188 C 70.550781 32.4375 71.988281 32.074219 73.441406 31.785156 C 74.894531 31.496094 76.359375 31.277344 77.832031 31.132812 C 79.308594 30.988281 80.785156 30.914062 82.269531 30.914062 Z M 82.269531 30.914062 " clip-rule="nonzero"/></clipPath><linearGradient x1="250" gradientTransform="matrix(0.871016, 0, 0, 0.872773, -30.378562, -30.509669)" y1="70.399985" x2="250" gradientUnits="userSpaceOnUse" y2="415.620981" id="796d48b769"><stop stop-opacity="1" stop-color="rgb(91.741943%, 91.737366%, 91.737366%)" offset="0"/><stop stop-opacity="1" stop-color="rgb(91.619873%, 91.603088%, 91.603088%)" offset="0.015625"/><stop stop-opacity="1" stop-color="rgb(91.377258%, 91.334534%, 91.334534%)" offset="0.03125"/><stop stop-opacity="1" stop-color="rgb(91.136169%, 91.067505%, 91.067505%)" offset="0.046875"/><stop stop-opacity="1" stop-color="rgb(90.893555%, 90.800476%, 90.800476%)" offset="0.0625"/><stop stop-opacity="1" stop-color="rgb(90.65094%, 90.533447%, 90.533447%)" offset="0.078125"/><stop stop-opacity="1" stop-color="rgb(90.408325%, 90.266418%, 90.266418%)" offset="0.09375"/><stop stop-opacity="1" stop-color="rgb(90.16571%, 89.99939%, 89.99939%)" offset="0.109375"/><stop stop-opacity="1" stop-color="rgb(89.923096%, 89.732361%, 89.732361%)" offset="0.125"/><stop stop-opacity="1" stop-color="rgb(89.680481%, 89.465332%, 89.465332%)" offset="0.140625"/><stop stop-opacity="1" stop-color="rgb(89.437866%, 89.196777%, 89.196777%)" offset="0.15625"/><stop stop-opacity="1" stop-color="rgb(89.195251%, 88.929749%, 88.929749%)" offset="0.171875"/><stop stop-opacity="1" stop-color="rgb(88.952637%, 88.66272%, 88.66272%)" offset="0.1875"/><stop stop-opacity="1" stop-color="rgb(88.710022%, 88.395691%, 88.395691%)" offset="0.203125"/><stop stop-opacity="1" stop-color="rgb(88.467407%, 88.128662%, 88.128662%)" offset="0.21875"/><stop stop-opacity="1" stop-color="rgb(88.224792%, 87.861633%, 87.861633%)" offset="0.234375"/><stop stop-opacity="1" stop-color="rgb(87.982178%, 87.594604%, 87.594604%)" offset="0.25"/><stop stop-opacity="1" stop-color="rgb(87.739563%, 87.32605%, 87.32605%)" offset="0.265625"/><stop stop-opacity="1" stop-color="rgb(87.498474%, 87.059021%, 87.059021%)" offset="0.28125"/><stop stop-opacity="1" stop-color="rgb(87.255859%, 86.791992%, 86.791992%)" offset="0.296875"/><stop stop-opacity="1" stop-color="rgb(87.013245%, 86.524963%, 86.524963%)" offset="0.3125"/><stop stop-opacity="1" stop-color="rgb(86.77063%, 86.257935%, 86.257935%)" offset="0.328125"/><stop stop-opacity="1" stop-color="rgb(86.528015%, 85.990906%, 85.990906%)" offset="0.34375"/><stop stop-opacity="1" stop-color="rgb(86.2854%, 85.723877%, 85.723877%)" offset="0.359375"/><stop stop-opacity="1" stop-color="rgb(86.042786%, 85.456848%, 85.456848%)" offset="0.375"/><stop stop-opacity="1" stop-color="rgb(85.800171%, 85.188293%, 85.188293%)" offset="0.390625"/><stop stop-opacity="1" stop-color="rgb(85.557556%, 84.921265%, 84.921265%)" offset="0.40625"/><stop stop-opacity="1" stop-color="rgb(85.314941%, 84.654236%, 84.654236%)" offset="0.421875"/><stop stop-opacity="1" stop-color="rgb(85.072327%, 84.387207%, 84.387207%)" offset="0.4375"/><stop stop-opacity="1" stop-color="rgb(84.829712%, 84.120178%, 84.120178%)" offset="0.453125"/><stop stop-opacity="1" stop-color="rgb(84.587097%, 83.853149%, 83.853149%)" offset="0.46875"/><stop stop-opacity="1" stop-color="rgb(84.344482%, 83.586121%, 83.586121%)" offset="0.484375"/><stop stop-opacity="1" stop-color="rgb(84.101868%, 83.317566%, 83.317566%)" offset="0.5"/><stop stop-opacity="1" stop-color="rgb(83.860779%, 83.050537%, 83.050537%)" offset="0.515625"/><stop stop-opacity="1" stop-color="rgb(83.618164%, 82.783508%, 82.783508%)" offset="0.53125"/><stop stop-opacity="1" stop-color="rgb(83.375549%, 82.516479%, 82.516479%)" offset="0.546875"/><stop stop-opacity="1" stop-color="rgb(83.132935%, 82.249451%, 82.249451%)" offset="0.5625"/><stop stop-opacity="1" stop-color="rgb(82.89032%, 81.982422%, 81.982422%)" offset="0.578125"/><stop stop-opacity="1" stop-color="rgb(82.647705%, 81.715393%, 81.715393%)" offset="0.59375"/><stop stop-opacity="1" stop-color="rgb(82.40509%, 81.448364%, 81.448364%)" offset="0.609375"/><stop stop-opacity="1" stop-color="rgb(82.162476%, 81.17981%, 81.17981%)" offset="0.625"/><stop stop-opacity="1" stop-color="rgb(81.919861%, 80.912781%, 80.912781%)" offset="0.640625"/><stop stop-opacity="1" stop-color="rgb(81.677246%, 80.645752%, 80.645752%)" offset="0.65625"/><stop stop-opacity="1" stop-color="rgb(81.434631%, 80.378723%, 80.378723%)" offset="0.671875"/><stop stop-opacity="1" stop-color="rgb(81.192017%, 80.111694%, 80.111694%)" offset="0.6875"/><stop stop-opacity="1" stop-color="rgb(80.949402%, 79.844666%, 79.844666%)" offset="0.703125"/><stop stop-opacity="1" stop-color="rgb(80.706787%, 79.577637%, 79.577637%)" offset="0.71875"/><stop stop-opacity="1" stop-color="rgb(80.464172%, 79.310608%, 79.310608%)" offset="0.734375"/><stop stop-opacity="1" stop-color="rgb(80.221558%, 79.042053%, 79.042053%)" offset="0.75"/><stop stop-opacity="1" stop-color="rgb(79.980469%, 78.775024%, 78.775024%)" offset="0.765625"/><stop stop-opacity="1" stop-color="rgb(79.737854%, 78.507996%, 78.507996%)" offset="0.78125"/><stop stop-opacity="1" stop-color="rgb(79.495239%, 78.240967%, 78.240967%)" offset="0.796875"/><stop stop-opacity="1" stop-color="rgb(79.252625%, 77.973938%, 77.973938%)" offset="0.8125"/><stop stop-opacity="1" stop-color="rgb(79.01001%, 77.706909%, 77.706909%)" offset="0.828125"/><stop stop-opacity="1" stop-color="rgb(78.767395%, 77.43988%, 77.43988%)" offset="0.84375"/><stop stop-opacity="1" stop-color="rgb(78.52478%, 77.171326%, 77.171326%)" offset="0.859375"/><stop stop-opacity="1" stop-color="rgb(78.282166%, 76.904297%, 76.904297%)" offset="0.875"/><stop stop-opacity="1" stop-color="rgb(78.039551%, 76.637268%, 76.637268%)" offset="0.890625"/><stop stop-opacity="1" stop-color="rgb(77.796936%, 76.370239%, 76.370239%)" offset="0.90625"/><stop stop-opacity="1" stop-color="rgb(77.554321%, 76.10321%, 76.10321%)" offset="0.921875"/><stop stop-opacity="1" stop-color="rgb(77.311707%, 75.836182%, 75.836182%)" offset="0.9375"/><stop stop-opacity="1" stop-color="rgb(77.069092%, 75.569153%, 75.569153%)" offset="0.953125"/><stop stop-opacity="1" stop-color="rgb(76.826477%, 75.302124%, 75.302124%)" offset="0.96875"/><stop stop-opacity="1" stop-color="rgb(76.583862%, 75.033569%, 75.033569%)" offset="0.984375"/><stop stop-opacity="1" stop-color="rgb(76.342773%, 74.766541%, 74.766541%)" offset="1"/></linearGradient><clipPath id="5fa9f30781"><path d="M 77 71 L 298 71 L 298 292 L 77 292 Z M 77 71 " clip-rule="nonzero"/></clipPath><clipPath id="557346eadd"><path d="M 93.699219 71.292969 L 281.054688 71.292969 C 281.589844 71.292969 282.125 71.320312 282.660156 71.371094 C 283.191406 71.425781 283.722656 71.503906 284.25 71.609375 C 284.777344 71.710938 285.296875 71.84375 285.808594 72 C 286.320312 72.15625 286.828125 72.335938 287.324219 72.542969 C 287.816406 72.746094 288.300781 72.976562 288.777344 73.230469 C 289.25 73.484375 289.707031 73.761719 290.15625 74.058594 C 290.601562 74.355469 291.03125 74.675781 291.445312 75.019531 C 291.859375 75.359375 292.257812 75.71875 292.636719 76.101562 C 293.015625 76.480469 293.375 76.878906 293.714844 77.292969 C 294.058594 77.710938 294.375 78.140625 294.675781 78.585938 C 294.972656 79.035156 295.246094 79.496094 295.5 79.96875 C 295.753906 80.445312 295.984375 80.929688 296.1875 81.425781 C 296.394531 81.921875 296.574219 82.429688 296.730469 82.941406 C 296.886719 83.457031 297.015625 83.976562 297.121094 84.503906 C 297.226562 85.03125 297.304688 85.5625 297.355469 86.097656 C 297.410156 86.632812 297.433594 87.167969 297.433594 87.707031 L 297.433594 275.441406 C 297.433594 275.976562 297.410156 276.515625 297.355469 277.050781 C 297.304688 277.585938 297.226562 278.117188 297.121094 278.644531 C 297.015625 279.171875 296.886719 279.691406 296.730469 280.207031 C 296.574219 280.71875 296.394531 281.226562 296.1875 281.722656 C 295.984375 282.21875 295.753906 282.703125 295.5 283.179688 C 295.246094 283.652344 294.972656 284.113281 294.675781 284.558594 C 294.375 285.007812 294.058594 285.4375 293.714844 285.855469 C 293.375 286.269531 293.015625 286.667969 292.636719 287.046875 C 292.257812 287.429688 291.859375 287.789062 291.445312 288.128906 C 291.03125 288.472656 290.601562 288.789062 290.15625 289.089844 C 289.707031 289.386719 289.25 289.664062 288.777344 289.917969 C 288.300781 290.171875 287.816406 290.402344 287.324219 290.605469 C 286.828125 290.8125 286.320312 290.992188 285.808594 291.148438 C 285.296875 291.304688 284.773438 291.4375 284.25 291.539062 C 283.722656 291.644531 283.191406 291.722656 282.660156 291.777344 C 282.125 291.828125 281.589844 291.855469 281.054688 291.855469 L 93.699219 291.855469 C 93.160156 291.855469 92.625 291.828125 92.09375 291.777344 C 91.558594 291.722656 91.027344 291.644531 90.5 291.539062 C 89.976562 291.4375 89.457031 291.304688 88.941406 291.148438 C 88.429688 290.992188 87.925781 290.8125 87.429688 290.605469 C 86.933594 290.402344 86.449219 290.171875 85.976562 289.917969 C 85.503906 289.664062 85.042969 289.386719 84.597656 289.089844 C 84.148438 288.789062 83.71875 288.472656 83.304688 288.128906 C 82.890625 287.789062 82.492188 287.429688 82.113281 287.046875 C 81.734375 286.667969 81.375 286.269531 81.035156 285.855469 C 80.695312 285.4375 80.375 285.007812 80.078125 284.558594 C 79.777344 284.113281 79.503906 283.652344 79.25 283.179688 C 78.996094 282.703125 78.769531 282.21875 78.5625 281.722656 C 78.355469 281.226562 78.175781 280.71875 78.019531 280.207031 C 77.867188 279.691406 77.734375 279.171875 77.628906 278.644531 C 77.527344 278.117188 77.445312 277.585938 77.394531 277.050781 C 77.34375 276.515625 77.316406 275.976562 77.316406 275.441406 L 77.316406 87.707031 C 77.316406 87.167969 77.34375 86.632812 77.394531 86.097656 C 77.445312 85.5625 77.527344 85.03125 77.628906 84.503906 C 77.734375 83.976562 77.867188 83.457031 78.019531 82.941406 C 78.175781 82.429688 78.355469 81.921875 78.5625 81.425781 C 78.769531 80.929688 78.996094 80.445312 79.25 79.96875 C 79.503906 79.496094 79.777344 79.035156 80.078125 78.585938 C 80.375 78.140625 80.695312 77.710938 81.035156 77.292969 C 81.375 76.878906 81.734375 76.480469 82.113281 76.101562 C 82.492188 75.71875 82.890625 75.359375 83.304688 75.019531 C 83.71875 74.675781 84.148438 74.355469 84.597656 74.058594 C 85.042969 73.761719 85.503906 73.484375 85.976562 73.230469 C 86.449219 72.976562 86.933594 72.746094 87.429688 72.542969 C 87.925781 72.335938 88.429688 72.15625 88.941406 72 C 89.457031 71.84375 89.976562 71.710938 90.5 71.609375 C 91.027344 71.503906 91.558594 71.425781 92.09375 71.371094 C 92.625 71.320312 93.160156 71.292969 93.699219 71.292969 Z M 93.699219 71.292969 " clip-rule="nonzero"/></clipPath><linearGradient x1="250" gradientTransform="matrix(0.871016, 0, 0, 0.872773, -30.378562, -30.509669)" y1="369.357981" x2="250" gradientUnits="userSpaceOnUse" y2="116.641981" id="d1599a9c7e"><stop stop-opacity="1" stop-color="rgb(91.165161%, 91.099548%, 91.099548%)" offset="0"/><stop stop-opacity="1" stop-color="rgb(91.05835%, 90.982056%, 90.982056%)" offset="0.015625"/><stop stop-opacity="1" stop-color="rgb(90.844727%, 90.74707%, 90.74707%)" offset="0.03125"/><stop stop-opacity="1" stop-color="rgb(90.632629%, 90.513611%, 90.513611%)" offset="0.046875"/><stop stop-opacity="1" stop-color="rgb(90.419006%, 90.278625%, 90.278625%)" offset="0.0625"/><stop stop-opacity="1" stop-color="rgb(90.205383%, 90.04364%, 90.04364%)" offset="0.078125"/><stop stop-opacity="1" stop-color="rgb(89.993286%, 89.808655%, 89.808655%)" offset="0.09375"/><stop stop-opacity="1" stop-color="rgb(89.779663%, 89.573669%, 89.573669%)" offset="0.109375"/><stop stop-opacity="1" stop-color="rgb(89.567566%, 89.34021%, 89.34021%)" offset="0.125"/><stop stop-opacity="1" stop-color="rgb(89.353943%, 89.105225%, 89.105225%)" offset="0.140625"/><stop stop-opacity="1" stop-color="rgb(89.14032%, 88.870239%, 88.870239%)" offset="0.15625"/><stop stop-opacity="1" stop-color="rgb(88.928223%, 88.635254%, 88.635254%)" offset="0.171875"/><stop stop-opacity="1" stop-color="rgb(88.7146%, 88.400269%, 88.400269%)" offset="0.1875"/><stop stop-opacity="1" stop-color="rgb(88.502502%, 88.166809%, 88.166809%)" offset="0.203125"/><stop stop-opacity="1" stop-color="rgb(88.288879%, 87.931824%, 87.931824%)" offset="0.21875"/><stop stop-opacity="1" stop-color="rgb(88.076782%, 87.696838%, 87.696838%)" offset="0.234375"/><stop stop-opacity="1" stop-color="rgb(87.863159%, 87.461853%, 87.461853%)" offset="0.25"/><stop stop-opacity="1" stop-color="rgb(87.649536%, 87.226868%, 87.226868%)" offset="0.265625"/><stop stop-opacity="1" stop-color="rgb(87.437439%, 86.993408%, 86.993408%)" offset="0.28125"/><stop stop-opacity="1" stop-color="rgb(87.223816%, 86.758423%, 86.758423%)" offset="0.296875"/><stop stop-opacity="1" stop-color="rgb(87.011719%, 86.523438%, 86.523438%)" offset="0.3125"/><stop stop-opacity="1" stop-color="rgb(86.798096%, 86.288452%, 86.288452%)" offset="0.328125"/><stop stop-opacity="1" stop-color="rgb(86.585999%, 86.053467%, 86.053467%)" offset="0.34375"/><stop stop-opacity="1" stop-color="rgb(86.372375%, 85.820007%, 85.820007%)" offset="0.359375"/><stop stop-opacity="1" stop-color="rgb(86.158752%, 85.585022%, 85.585022%)" offset="0.375"/><stop stop-opacity="1" stop-color="rgb(85.946655%, 85.350037%, 85.350037%)" offset="0.390625"/><stop stop-opacity="1" stop-color="rgb(85.733032%, 85.115051%, 85.115051%)" offset="0.40625"/><stop stop-opacity="1" stop-color="rgb(85.520935%, 84.880066%, 84.880066%)" offset="0.421875"/><stop stop-opacity="1" stop-color="rgb(85.307312%, 84.646606%, 84.646606%)" offset="0.4375"/><stop stop-opacity="1" stop-color="rgb(85.095215%, 84.411621%, 84.411621%)" offset="0.453125"/><stop stop-opacity="1" stop-color="rgb(84.881592%, 84.176636%, 84.176636%)" offset="0.46875"/><stop stop-opacity="1" stop-color="rgb(84.667969%, 83.94165%, 83.94165%)" offset="0.484375"/><stop stop-opacity="1" stop-color="rgb(84.455872%, 83.706665%, 83.706665%)" offset="0.5"/><stop stop-opacity="1" stop-color="rgb(84.242249%, 83.473206%, 83.473206%)" offset="0.515625"/><stop stop-opacity="1" stop-color="rgb(84.030151%, 83.23822%, 83.23822%)" offset="0.53125"/><stop stop-opacity="1" stop-color="rgb(83.816528%, 83.003235%, 83.003235%)" offset="0.546875"/><stop stop-opacity="1" stop-color="rgb(83.602905%, 82.76825%, 82.76825%)" offset="0.5625"/><stop stop-opacity="1" stop-color="rgb(83.390808%, 82.533264%, 82.533264%)" offset="0.578125"/><stop stop-opacity="1" stop-color="rgb(83.177185%, 82.299805%, 82.299805%)" offset="0.59375"/><stop stop-opacity="1" stop-color="rgb(82.965088%, 82.064819%, 82.064819%)" offset="0.609375"/><stop stop-opacity="1" stop-color="rgb(82.751465%, 81.829834%, 81.829834%)" offset="0.625"/><stop stop-opacity="1" stop-color="rgb(82.539368%, 81.594849%, 81.594849%)" offset="0.640625"/><stop stop-opacity="1" stop-color="rgb(82.325745%, 81.359863%, 81.359863%)" offset="0.65625"/><stop stop-opacity="1" stop-color="rgb(82.112122%, 81.126404%, 81.126404%)" offset="0.671875"/><stop stop-opacity="1" stop-color="rgb(81.900024%, 80.891418%, 80.891418%)" offset="0.6875"/><stop stop-opacity="1" stop-color="rgb(81.686401%, 80.656433%, 80.656433%)" offset="0.703125"/><stop stop-opacity="1" stop-color="rgb(81.474304%, 80.421448%, 80.421448%)" offset="0.71875"/><stop stop-opacity="1" stop-color="rgb(81.260681%, 80.186462%, 80.186462%)" offset="0.734375"/><stop stop-opacity="1" stop-color="rgb(81.048584%, 79.953003%, 79.953003%)" offset="0.75"/><stop stop-opacity="1" stop-color="rgb(80.834961%, 79.718018%, 79.718018%)" offset="0.765625"/><stop stop-opacity="1" stop-color="rgb(80.621338%, 79.483032%, 79.483032%)" offset="0.78125"/><stop stop-opacity="1" stop-color="rgb(80.409241%, 79.248047%, 79.248047%)" offset="0.796875"/><stop stop-opacity="1" stop-color="rgb(80.195618%, 79.013062%, 79.013062%)" offset="0.8125"/><stop stop-opacity="1" stop-color="rgb(79.983521%, 78.779602%, 78.779602%)" offset="0.828125"/><stop stop-opacity="1" stop-color="rgb(79.769897%, 78.544617%, 78.544617%)" offset="0.84375"/><stop stop-opacity="1" stop-color="rgb(79.556274%, 78.309631%, 78.309631%)" offset="0.859375"/><stop stop-opacity="1" stop-color="rgb(79.344177%, 78.074646%, 78.074646%)" offset="0.875"/><stop stop-opacity="1" stop-color="rgb(79.130554%, 77.839661%, 77.839661%)" offset="0.890625"/><stop stop-opacity="1" stop-color="rgb(78.918457%, 77.606201%, 77.606201%)" offset="0.90625"/><stop stop-opacity="1" stop-color="rgb(78.704834%, 77.371216%, 77.371216%)" offset="0.921875"/><stop stop-opacity="1" stop-color="rgb(78.492737%, 77.13623%, 77.13623%)" offset="0.9375"/><stop stop-opacity="1" stop-color="rgb(78.279114%, 76.901245%, 76.901245%)" offset="0.953125"/><stop stop-opacity="1" stop-color="rgb(78.065491%, 76.66626%, 76.66626%)" offset="0.96875"/><stop stop-opacity="1" stop-color="rgb(77.853394%, 76.4328%, 76.4328%)" offset="0.984375"/><stop stop-opacity="1" stop-color="rgb(77.639771%, 76.197815%, 76.197815%)" offset="1"/></linearGradient></defs><g clip-path="url(#3f2a3e982a)"><path fill="#aeadad" d="M 82.269531 43.132812 L 292.484375 43.132812 C 293.964844 43.132812 295.441406 43.207031 296.917969 43.351562 C 298.394531 43.496094 299.855469 43.714844 301.308594 44.003906 C 302.761719 44.292969 304.199219 44.65625 305.617188 45.085938 C 307.035156 45.515625 308.429688 46.015625 309.796875 46.585938 C 311.167969 47.152344 312.503906 47.789062 313.8125 48.488281 C 315.121094 49.1875 316.390625 49.949219 317.621094 50.773438 C 318.855469 51.601562 320.042969 52.484375 321.1875 53.425781 C 322.332031 54.367188 323.429688 55.363281 324.476562 56.414062 C 325.527344 57.464844 326.519531 58.5625 327.460938 59.710938 C 328.398438 60.859375 329.28125 62.050781 330.105469 63.285156 C 330.929688 64.519531 331.691406 65.792969 332.386719 67.101562 C 333.085938 68.410156 333.71875 69.75 334.285156 71.121094 C 334.855469 72.496094 335.351562 73.890625 335.78125 75.3125 C 336.210938 76.734375 336.574219 78.171875 336.863281 79.628906 C 337.152344 81.085938 337.367188 82.550781 337.511719 84.03125 C 337.660156 85.507812 337.730469 86.988281 337.730469 88.472656 L 337.730469 299.113281 C 337.730469 300.597656 337.660156 302.078125 337.511719 303.554688 C 337.367188 305.035156 337.152344 306.5 336.863281 307.957031 C 336.574219 309.414062 336.210938 310.851562 335.78125 312.273438 C 335.351562 313.695312 334.855469 315.089844 334.285156 316.460938 C 333.71875 317.835938 333.085938 319.175781 332.386719 320.484375 C 331.691406 321.792969 330.929688 323.066406 330.105469 324.300781 C 329.28125 325.535156 328.398438 326.726562 327.460938 327.875 C 326.519531 329.023438 325.527344 330.121094 324.476562 331.171875 C 323.429688 332.222656 322.332031 333.21875 321.1875 334.160156 C 320.042969 335.101562 318.855469 335.984375 317.621094 336.8125 C 316.390625 337.636719 315.121094 338.398438 313.8125 339.097656 C 312.503906 339.796875 311.167969 340.433594 309.796875 341 C 308.429688 341.570312 307.035156 342.070312 305.617188 342.5 C 304.199219 342.929688 302.761719 343.289062 301.308594 343.582031 C 299.855469 343.871094 298.394531 344.089844 296.917969 344.234375 C 295.441406 344.378906 293.964844 344.453125 292.484375 344.453125 L 82.269531 344.453125 C 80.785156 344.453125 79.308594 344.378906 77.832031 344.234375 C 76.359375 344.089844 74.894531 343.871094 73.441406 343.582031 C 71.988281 343.289062 70.550781 342.929688 69.132812 342.5 C 67.714844 342.070312 66.320312 341.570312 64.953125 341 C 63.582031 340.433594 62.246094 339.796875 60.9375 339.097656 C 59.632812 338.398438 58.363281 337.636719 57.128906 336.8125 C 55.898438 335.984375 54.707031 335.101562 53.5625 334.160156 C 52.417969 333.21875 51.320312 332.222656 50.273438 331.171875 C 49.226562 330.121094 48.230469 329.023438 47.289062 327.875 C 46.351562 326.726562 45.46875 325.535156 44.644531 324.300781 C 43.820312 323.066406 43.0625 321.792969 42.363281 320.484375 C 41.664062 319.175781 41.03125 317.835938 40.464844 316.460938 C 39.898438 315.089844 39.398438 313.695312 38.96875 312.273438 C 38.539062 310.851562 38.179688 309.414062 37.890625 307.957031 C 37.601562 306.5 37.382812 305.035156 37.238281 303.554688 C 37.09375 302.078125 37.019531 300.597656 37.019531 299.113281 L 37.019531 88.472656 C 37.019531 86.988281 37.09375 85.507812 37.238281 84.03125 C 37.382812 82.550781 37.601562 81.085938 37.890625 79.628906 C 38.179688 78.171875 38.539062 76.734375 38.96875 75.3125 C 39.398438 73.890625 39.898438 72.496094 40.464844 71.121094 C 41.03125 69.75 41.664062 68.410156 42.363281 67.101562 C 43.0625 65.792969 43.820312 64.519531 44.644531 63.285156 C 45.46875 62.050781 46.351562 60.859375 47.289062 59.710938 C 48.230469 58.5625 49.226562 57.464844 50.273438 56.414062 C 51.320312 55.363281 52.417969 54.367188 53.5625 53.425781 C 54.707031 52.484375 55.898438 51.601562 57.128906 50.773438 C 58.363281 49.949219 59.632812 49.1875 60.9375 48.488281 C 62.246094 47.789062 63.582031 47.152344 64.953125 46.585938 C 66.320312 46.015625 67.714844 45.515625 69.132812 45.085938 C 70.550781 44.65625 71.988281 44.292969 73.441406 44.003906 C 74.894531 43.714844 76.359375 43.496094 77.832031 43.351562 C 79.308594 43.207031 80.785156 43.132812 82.269531 43.132812 Z M 82.269531 43.132812 " fill-opacity="1" fill-rule="nonzero"/></g><g clip-path="url(#652b545025)"><g clip-path="url(#5977b94faf)"><path fill="url(#796d48b769)" d="M 37.019531 30.933594 L 37.019531 332.234375 L 337.730469 332.234375 L 337.730469 30.933594 Z M 37.019531 30.933594 " fill-rule="nonzero"/></g></g><g clip-path="url(#5fa9f30781)"><g clip-path="url(#557346eadd)"><path fill="url(#d1599a9c7e)" d="M 77.316406 71.292969 L 77.316406 291.855469 L 297.433594 291.855469 L 297.433594 71.292969 Z M 77.316406 71.292969 " fill-rule="nonzero"/></g></g><path fill="#b3afaf" d="M 281.054688 292.292969 L 93.699219 292.292969 C 93.148438 292.292969 92.597656 292.265625 92.050781 292.210938 C 91.5 292.15625 90.957031 292.074219 90.417969 291.964844 C 89.878906 291.855469 89.34375 291.722656 88.816406 291.5625 C 88.292969 291.402344 87.773438 291.214844 87.265625 291.003906 C 86.757812 290.792969 86.257812 290.558594 85.773438 290.296875 C 85.289062 290.035156 84.816406 289.753906 84.359375 289.445312 C 83.902344 289.140625 83.460938 288.8125 83.035156 288.460938 C 82.609375 288.109375 82.199219 287.742188 81.8125 287.351562 C 81.421875 286.960938 81.050781 286.550781 80.703125 286.125 C 80.355469 285.699219 80.027344 285.257812 79.71875 284.796875 C 79.414062 284.339844 79.132812 283.867188 78.871094 283.378906 C 78.613281 282.894531 78.375 282.394531 78.164062 281.886719 C 77.953125 281.375 77.769531 280.859375 77.609375 280.332031 C 77.449219 279.800781 77.3125 279.269531 77.207031 278.726562 C 77.097656 278.1875 77.015625 277.640625 76.960938 277.09375 C 76.910156 276.542969 76.878906 275.992188 76.878906 275.441406 L 76.878906 87.707031 C 76.878906 87.15625 76.910156 86.605469 76.960938 86.054688 C 77.015625 85.507812 77.097656 84.960938 77.207031 84.421875 C 77.3125 83.878906 77.449219 83.34375 77.609375 82.816406 C 77.769531 82.289062 77.953125 81.769531 78.164062 81.261719 C 78.375 80.75 78.613281 80.253906 78.871094 79.765625 C 79.132812 79.28125 79.414062 78.808594 79.71875 78.351562 C 80.027344 77.890625 80.355469 77.449219 80.703125 77.023438 C 81.050781 76.59375 81.421875 76.1875 81.8125 75.796875 C 82.199219 75.40625 82.609375 75.035156 83.035156 74.6875 C 83.460938 74.335938 83.902344 74.007812 84.359375 73.703125 C 84.816406 73.394531 85.289062 73.113281 85.773438 72.851562 C 86.257812 72.589844 86.757812 72.355469 87.265625 72.144531 C 87.773438 71.933594 88.292969 71.746094 88.816406 71.585938 C 89.34375 71.425781 89.878906 71.289062 90.417969 71.183594 C 90.957031 71.074219 91.5 70.992188 92.050781 70.9375 C 92.597656 70.882812 93.148438 70.855469 93.699219 70.855469 L 281.054688 70.855469 C 281.605469 70.855469 282.152344 70.882812 282.699219 70.9375 C 283.25 70.992188 283.792969 71.074219 284.332031 71.183594 C 284.871094 71.289062 285.40625 71.425781 285.933594 71.585938 C 286.460938 71.746094 286.976562 71.933594 287.484375 72.144531 C 287.996094 72.355469 288.492188 72.589844 288.976562 72.851562 C 289.460938 73.113281 289.933594 73.394531 290.390625 73.703125 C 290.851562 74.007812 291.292969 74.335938 291.71875 74.6875 C 292.144531 75.035156 292.550781 75.40625 292.941406 75.796875 C 293.328125 76.1875 293.699219 76.59375 294.046875 77.023438 C 294.398438 77.449219 294.722656 77.890625 295.03125 78.351562 C 295.335938 78.808594 295.621094 79.28125 295.878906 79.765625 C 296.140625 80.253906 296.375 80.75 296.585938 81.261719 C 296.796875 81.769531 296.980469 82.289062 297.140625 82.816406 C 297.300781 83.34375 297.4375 83.878906 297.542969 84.421875 C 297.652344 84.960938 297.734375 85.507812 297.789062 86.054688 C 297.84375 86.605469 297.871094 87.15625 297.871094 87.707031 L 297.871094 275.441406 C 297.871094 275.992188 297.84375 276.542969 297.789062 277.09375 C 297.734375 277.640625 297.652344 278.1875 297.542969 278.726562 C 297.4375 279.269531 297.300781 279.800781 297.140625 280.332031 C 296.980469 280.859375 296.796875 281.378906 296.585938 281.886719 C 296.375 282.394531 296.140625 282.894531 295.878906 283.378906 C 295.621094 283.867188 295.335938 284.339844 295.03125 284.796875 C 294.722656 285.257812 294.398438 285.699219 294.046875 286.125 C 293.699219 286.550781 293.328125 286.960938 292.941406 287.351562 C 292.550781 287.742188 292.144531 288.109375 291.71875 288.460938 C 291.292969 288.8125 290.851562 289.140625 290.390625 289.445312 C 289.933594 289.753906 289.460938 290.035156 288.976562 290.296875 C 288.492188 290.558594 287.996094 290.792969 287.484375 291.003906 C 286.976562 291.214844 286.460938 291.402344 285.933594 291.5625 C 285.40625 291.722656 284.871094 291.855469 284.332031 291.964844 C 283.792969 292.074219 283.25 292.15625 282.699219 292.210938 C 282.152344 292.265625 281.605469 292.292969 281.054688 292.292969 Z M 93.699219 71.730469 C 93.175781 71.730469 92.65625 71.753906 92.136719 71.808594 C 91.617188 71.859375 91.101562 71.9375 90.589844 72.039062 C 90.074219 72.140625 89.570312 72.269531 89.070312 72.421875 C 88.570312 72.574219 88.082031 72.75 87.597656 72.949219 C 87.117188 73.148438 86.644531 73.375 86.183594 73.621094 C 85.722656 73.867188 85.277344 74.136719 84.84375 74.425781 C 84.410156 74.71875 83.988281 75.03125 83.585938 75.359375 C 83.183594 75.691406 82.796875 76.042969 82.425781 76.414062 C 82.058594 76.785156 81.707031 77.171875 81.375 77.574219 C 81.046875 77.980469 80.734375 78.398438 80.445312 78.835938 C 80.152344 79.269531 79.886719 79.71875 79.640625 80.179688 C 79.394531 80.640625 79.167969 81.113281 78.96875 81.59375 C 78.769531 82.078125 78.59375 82.570312 78.441406 83.070312 C 78.289062 83.570312 78.164062 84.078125 78.058594 84.589844 C 77.957031 85.105469 77.882812 85.621094 77.828125 86.140625 C 77.777344 86.664062 77.75 87.183594 77.75 87.707031 L 77.75 275.441406 C 77.75 275.964844 77.777344 276.484375 77.828125 277.007812 C 77.882812 277.527344 77.957031 278.042969 78.058594 278.558594 C 78.164062 279.070312 78.289062 279.578125 78.441406 280.078125 C 78.59375 280.578125 78.769531 281.070312 78.96875 281.550781 C 79.167969 282.035156 79.394531 282.507812 79.640625 282.96875 C 79.886719 283.429688 80.152344 283.878906 80.445312 284.3125 C 80.734375 284.75 81.046875 285.167969 81.375 285.574219 C 81.707031 285.976562 82.058594 286.363281 82.425781 286.734375 C 82.796875 287.105469 83.183594 287.453125 83.585938 287.785156 C 83.988281 288.117188 84.410156 288.429688 84.84375 288.722656 C 85.277344 289.011719 85.722656 289.28125 86.183594 289.527344 C 86.644531 289.773438 87.117188 289.996094 87.597656 290.199219 C 88.082031 290.398438 88.570312 290.574219 89.070312 290.726562 C 89.570312 290.878906 90.074219 291.007812 90.589844 291.109375 C 91.101562 291.210938 91.617188 291.289062 92.136719 291.339844 C 92.65625 291.394531 93.175781 291.417969 93.699219 291.417969 L 281.054688 291.417969 C 281.574219 291.417969 282.097656 291.394531 282.617188 291.339844 C 283.136719 291.289062 283.652344 291.210938 284.164062 291.109375 C 284.675781 291.007812 285.179688 290.878906 285.679688 290.726562 C 286.179688 290.574219 286.671875 290.398438 287.152344 290.199219 C 287.636719 289.996094 288.105469 289.773438 288.566406 289.527344 C 289.027344 289.28125 289.472656 289.011719 289.910156 288.722656 C 290.34375 288.429688 290.761719 288.117188 291.164062 287.785156 C 291.566406 287.453125 291.953125 287.105469 292.324219 286.734375 C 292.691406 286.363281 293.042969 285.976562 293.375 285.574219 C 293.707031 285.167969 294.015625 284.75 294.304688 284.3125 C 294.597656 283.878906 294.863281 283.429688 295.113281 282.96875 C 295.359375 282.507812 295.582031 282.035156 295.78125 281.550781 C 295.980469 281.070312 296.15625 280.578125 296.308594 280.078125 C 296.460938 279.578125 296.589844 279.070312 296.691406 278.558594 C 296.792969 278.042969 296.871094 277.527344 296.921875 277.007812 C 296.972656 276.484375 297 275.964844 297 275.441406 L 297 87.707031 C 297 87.183594 296.972656 86.664062 296.921875 86.140625 C 296.871094 85.621094 296.792969 85.105469 296.691406 84.589844 C 296.589844 84.078125 296.460938 83.570312 296.308594 83.070312 C 296.15625 82.570312 295.980469 82.078125 295.78125 81.59375 C 295.582031 81.113281 295.359375 80.640625 295.113281 80.179688 C 294.863281 79.71875 294.597656 79.269531 294.304688 78.835938 C 294.015625 78.398438 293.707031 77.980469 293.375 77.574219 C 293.042969 77.171875 292.691406 76.785156 292.324219 76.414062 C 291.953125 76.042969 291.566406 75.691406 291.164062 75.359375 C 290.761719 75.03125 290.34375 74.71875 289.910156 74.425781 C 289.472656 74.136719 289.027344 73.867188 288.566406 73.621094 C 288.105469 73.375 287.636719 73.148438 287.152344 72.949219 C 286.671875 72.75 286.179688 72.574219 285.679688 72.421875 C 285.179688 72.269531 284.675781 72.140625 284.164062 72.039062 C 283.652344 71.9375 283.136719 71.859375 282.617188 71.808594 C 282.097656 71.753906 281.574219 71.730469 281.054688 71.730469 Z M 93.699219 71.730469 " fill-opacity="1" fill-rule="nonzero"/><path fill="#444040" d="M 207.507812 212.15625 C 207.507812 207.71875 205.953125 204.296875 202.839844 201.894531 C 199.726562 199.492188 194.109375 197.066406 185.992188 194.617188 C 177.875 192.167969 171.414062 189.441406 166.621094 186.433594 C 157.441406 180.660156 152.851562 173.125 152.851562 163.835938 C 152.851562 155.699219 156.160156 149 162.78125 143.730469 C 169.402344 138.464844 177.992188 135.828125 188.554688 135.828125 C 195.09375 135.710938 201.34375 137.003906 207.300781 139.710938 C 209.933594 140.90625 212.347656 142.445312 214.546875 144.324219 C 216.746094 146.203125 218.644531 148.351562 220.238281 150.765625 C 221.796875 153.121094 222.976562 155.65625 223.777344 158.367188 C 224.578125 161.078125 224.96875 163.847656 224.941406 166.675781 L 207.507812 166.675781 C 207.507812 161.40625 205.859375 157.28125 202.5625 154.300781 C 199.261719 151.320312 194.546875 149.828125 188.414062 149.828125 C 182.695312 149.828125 178.253906 151.054688 175.097656 153.503906 C 171.9375 155.953125 170.359375 159.375 170.355469 163.769531 C 170.355469 167.46875 172.0625 170.550781 175.476562 173.019531 C 178.886719 175.492188 184.515625 177.894531 192.355469 180.230469 C 200.195312 182.566406 206.492188 185.222656 211.246094 188.203125 C 215.996094 191.183594 219.480469 194.605469 221.695312 198.464844 C 222.835938 200.535156 223.691406 202.71875 224.253906 205.019531 C 224.816406 207.316406 225.070312 209.652344 225.015625 212.015625 C 225.015625 220.429688 221.796875 227.121094 215.363281 232.089844 C 208.929688 237.0625 200.199219 239.542969 189.175781 239.542969 C 182.191406 239.621094 175.492188 238.269531 169.078125 235.488281 C 166.238281 234.308594 163.609375 232.765625 161.1875 230.867188 C 158.769531 228.964844 156.648438 226.773438 154.824219 224.292969 C 153.113281 221.859375 151.824219 219.222656 150.957031 216.378906 C 150.085938 213.535156 149.679688 210.628906 149.742188 207.652344 L 167.246094 207.652344 C 167.246094 213.386719 169.140625 217.820312 172.921875 220.964844 C 176.703125 224.105469 182.121094 225.675781 189.179688 225.675781 C 195.269531 225.675781 199.847656 224.441406 202.914062 221.96875 C 203.65625 221.390625 204.320312 220.730469 204.90625 219.996094 C 205.492188 219.261719 205.984375 218.464844 206.382812 217.613281 C 206.78125 216.761719 207.078125 215.871094 207.269531 214.949219 C 207.457031 214.027344 207.539062 213.097656 207.507812 212.15625 Z M 207.507812 212.15625 " fill-opacity="1" fill-rule="nonzero"/></svg>