<svg xmlns="http://www.w3.org/2000/svg" xmlns:xlink="http://www.w3.org/1999/xlink" width="500" zoomAndPan="magnify" viewBox="0 0 375 374.999991" height="500" preserveAspectRatio="xMidYMid meet" version="1.0"><defs><clipPath id="8ff9e3d912"><path d="M 37.066406 43 L 337.816406 43 L 337.816406 343.75 L 37.066406 343.75 Z M 37.066406 43 " clip-rule="nonzero"/></clipPath><clipPath id="561908aa48"><path d="M 37.066406 31 L 337.816406 31 L 337.816406 332 L 37.066406 332 Z M 37.066406 31 " clip-rule="nonzero"/></clipPath><clipPath id="068a358ce7"><path d="M 82.332031 30.984375 L 292.550781 30.984375 C 294.03125 30.984375 295.511719 31.054688 296.984375 31.199219 C 298.460938 31.347656 299.925781 31.5625 301.378906 31.851562 C 302.832031 32.140625 304.265625 32.5 305.683594 32.929688 C 307.101562 33.359375 308.496094 33.859375 309.867188 34.425781 C 311.234375 34.992188 312.574219 35.625 313.878906 36.324219 C 315.1875 37.023438 316.457031 37.78125 317.6875 38.605469 C 318.921875 39.429688 320.109375 40.308594 321.253906 41.25 C 322.402344 42.191406 323.496094 43.183594 324.546875 44.230469 C 325.59375 45.277344 326.585938 46.375 327.527344 47.519531 C 328.46875 48.664062 329.351562 49.855469 330.171875 51.085938 C 330.996094 52.316406 331.757812 53.585938 332.457031 54.890625 C 333.15625 56.199219 333.789062 57.535156 334.355469 58.90625 C 334.921875 60.273438 335.421875 61.667969 335.851562 63.085938 C 336.28125 64.503906 336.640625 65.9375 336.929688 67.390625 C 337.21875 68.84375 337.4375 70.308594 337.582031 71.78125 C 337.726562 73.253906 337.800781 74.734375 337.800781 76.214844 L 337.800781 286.347656 C 337.800781 287.832031 337.726562 289.308594 337.582031 290.78125 C 337.4375 292.257812 337.21875 293.71875 336.929688 295.171875 C 336.640625 296.625 336.28125 298.0625 335.851562 299.480469 C 335.421875 300.894531 334.921875 302.289062 334.355469 303.65625 C 333.789062 305.027344 333.15625 306.363281 332.457031 307.671875 C 331.757812 308.976562 330.996094 310.246094 330.171875 311.476562 C 329.351562 312.710938 328.46875 313.898438 327.527344 315.042969 C 326.585938 316.1875 325.59375 317.285156 324.546875 318.332031 C 323.496094 319.378906 322.402344 320.375 321.253906 321.3125 C 320.109375 322.253906 318.921875 323.132812 317.6875 323.957031 C 316.457031 324.78125 315.1875 325.539062 313.878906 326.238281 C 312.574219 326.9375 311.234375 327.570312 309.867188 328.136719 C 308.496094 328.703125 307.101562 329.203125 305.683594 329.632812 C 304.265625 330.0625 302.832031 330.421875 301.378906 330.710938 C 299.925781 331 298.460938 331.21875 296.984375 331.363281 C 295.511719 331.507812 294.03125 331.582031 292.550781 331.582031 L 82.332031 331.582031 C 80.851562 331.582031 79.371094 331.507812 77.898438 331.363281 C 76.421875 331.21875 74.957031 331 73.503906 330.710938 C 72.050781 330.421875 70.613281 330.0625 69.195312 329.632812 C 67.777344 329.203125 66.386719 328.703125 65.015625 328.136719 C 63.644531 327.570312 62.308594 326.9375 61 326.238281 C 59.695312 325.539062 58.425781 324.78125 57.191406 323.957031 C 55.960938 323.132812 54.773438 322.253906 53.625 321.3125 C 52.480469 320.375 51.382812 319.378906 50.335938 318.332031 C 49.289062 317.285156 48.292969 316.1875 47.355469 315.042969 C 46.414062 313.898438 45.53125 312.710938 44.707031 311.476562 C 43.886719 310.246094 43.125 308.976562 42.425781 307.671875 C 41.726562 306.363281 41.09375 305.027344 40.527344 303.65625 C 39.960938 302.289062 39.460938 300.894531 39.03125 299.480469 C 38.601562 298.0625 38.242188 296.625 37.953125 295.171875 C 37.664062 293.71875 37.445312 292.257812 37.300781 290.78125 C 37.15625 289.308594 37.082031 287.832031 37.082031 286.347656 L 37.082031 76.214844 C 37.082031 74.734375 37.15625 73.253906 37.300781 71.78125 C 37.445312 70.308594 37.664062 68.84375 37.953125 67.390625 C 38.242188 65.9375 38.601562 64.503906 39.03125 63.085938 C 39.460938 61.667969 39.960938 60.273438 40.527344 58.90625 C 41.09375 57.535156 41.726562 56.199219 42.425781 54.890625 C 43.125 53.585938 43.886719 52.316406 44.707031 51.085938 C 45.53125 49.851562 46.414062 48.664062 47.355469 47.519531 C 48.292969 46.375 49.289062 45.277344 50.335938 44.230469 C 51.382812 43.183594 52.480469 42.191406 53.625 41.25 C 54.773438 40.308594 55.960938 39.429688 57.191406 38.605469 C 58.425781 37.78125 59.695312 37.023438 61 36.324219 C 62.308594 35.625 63.644531 34.992188 65.015625 34.425781 C 66.386719 33.859375 67.777344 33.359375 69.195312 32.929688 C 70.613281 32.5 72.050781 32.140625 73.503906 31.851562 C 74.957031 31.5625 76.421875 31.347656 77.898438 31.199219 C 79.371094 31.054688 80.851562 30.984375 82.332031 30.984375 Z M 82.332031 30.984375 " clip-rule="nonzero"/></clipPath><linearGradient x1="250" gradientTransform="matrix(0.87103, 0, 0, 0.870685, -30.31688, -30.294769)" y1="70.399999" x2="250" gradientUnits="userSpaceOnUse" y2="415.620987" id="ffad512e06"><stop stop-opacity="1" stop-color="rgb(91.741943%, 91.737366%, 91.737366%)" offset="0"/><stop stop-opacity="1" stop-color="rgb(91.619873%, 91.603088%, 91.603088%)" offset="0.015625"/><stop stop-opacity="1" stop-color="rgb(91.377258%, 91.334534%, 91.334534%)" offset="0.03125"/><stop stop-opacity="1" stop-color="rgb(91.136169%, 91.067505%, 91.067505%)" offset="0.046875"/><stop stop-opacity="1" stop-color="rgb(90.893555%, 90.800476%, 90.800476%)" offset="0.0625"/><stop stop-opacity="1" stop-color="rgb(90.65094%, 90.533447%, 90.533447%)" offset="0.078125"/><stop stop-opacity="1" stop-color="rgb(90.408325%, 90.266418%, 90.266418%)" offset="0.09375"/><stop stop-opacity="1" stop-color="rgb(90.16571%, 89.99939%, 89.99939%)" offset="0.109375"/><stop stop-opacity="1" stop-color="rgb(89.923096%, 89.732361%, 89.732361%)" offset="0.125"/><stop stop-opacity="1" stop-color="rgb(89.680481%, 89.465332%, 89.465332%)" offset="0.140625"/><stop stop-opacity="1" stop-color="rgb(89.437866%, 89.196777%, 89.196777%)" offset="0.15625"/><stop stop-opacity="1" stop-color="rgb(89.195251%, 88.929749%, 88.929749%)" offset="0.171875"/><stop stop-opacity="1" stop-color="rgb(88.952637%, 88.66272%, 88.66272%)" offset="0.1875"/><stop stop-opacity="1" stop-color="rgb(88.710022%, 88.395691%, 88.395691%)" offset="0.203125"/><stop stop-opacity="1" stop-color="rgb(88.467407%, 88.128662%, 88.128662%)" offset="0.21875"/><stop stop-opacity="1" stop-color="rgb(88.224792%, 87.861633%, 87.861633%)" offset="0.234375"/><stop stop-opacity="1" stop-color="rgb(87.982178%, 87.594604%, 87.594604%)" offset="0.25"/><stop stop-opacity="1" stop-color="rgb(87.739563%, 87.32605%, 87.32605%)" offset="0.265625"/><stop stop-opacity="1" stop-color="rgb(87.498474%, 87.059021%, 87.059021%)" offset="0.28125"/><stop stop-opacity="1" stop-color="rgb(87.255859%, 86.791992%, 86.791992%)" offset="0.296875"/><stop stop-opacity="1" stop-color="rgb(87.013245%, 86.524963%, 86.524963%)" offset="0.3125"/><stop stop-opacity="1" stop-color="rgb(86.77063%, 86.257935%, 86.257935%)" offset="0.328125"/><stop stop-opacity="1" stop-color="rgb(86.528015%, 85.990906%, 85.990906%)" offset="0.34375"/><stop stop-opacity="1" stop-color="rgb(86.2854%, 85.723877%, 85.723877%)" offset="0.359375"/><stop stop-opacity="1" stop-color="rgb(86.042786%, 85.456848%, 85.456848%)" offset="0.375"/><stop stop-opacity="1" stop-color="rgb(85.800171%, 85.188293%, 85.188293%)" offset="0.390625"/><stop stop-opacity="1" stop-color="rgb(85.557556%, 84.921265%, 84.921265%)" offset="0.40625"/><stop stop-opacity="1" stop-color="rgb(85.314941%, 84.654236%, 84.654236%)" offset="0.421875"/><stop stop-opacity="1" stop-color="rgb(85.072327%, 84.387207%, 84.387207%)" offset="0.4375"/><stop stop-opacity="1" stop-color="rgb(84.829712%, 84.120178%, 84.120178%)" offset="0.453125"/><stop stop-opacity="1" stop-color="rgb(84.587097%, 83.853149%, 83.853149%)" offset="0.46875"/><stop stop-opacity="1" stop-color="rgb(84.344482%, 83.586121%, 83.586121%)" offset="0.484375"/><stop stop-opacity="1" stop-color="rgb(84.101868%, 83.317566%, 83.317566%)" offset="0.5"/><stop stop-opacity="1" stop-color="rgb(83.860779%, 83.050537%, 83.050537%)" offset="0.515625"/><stop stop-opacity="1" stop-color="rgb(83.618164%, 82.783508%, 82.783508%)" offset="0.53125"/><stop stop-opacity="1" stop-color="rgb(83.375549%, 82.516479%, 82.516479%)" offset="0.546875"/><stop stop-opacity="1" stop-color="rgb(83.132935%, 82.249451%, 82.249451%)" offset="0.5625"/><stop stop-opacity="1" stop-color="rgb(82.89032%, 81.982422%, 81.982422%)" offset="0.578125"/><stop stop-opacity="1" stop-color="rgb(82.647705%, 81.715393%, 81.715393%)" offset="0.59375"/><stop stop-opacity="1" stop-color="rgb(82.40509%, 81.448364%, 81.448364%)" offset="0.609375"/><stop stop-opacity="1" stop-color="rgb(82.162476%, 81.17981%, 81.17981%)" offset="0.625"/><stop stop-opacity="1" stop-color="rgb(81.919861%, 80.912781%, 80.912781%)" offset="0.640625"/><stop stop-opacity="1" stop-color="rgb(81.677246%, 80.645752%, 80.645752%)" offset="0.65625"/><stop stop-opacity="1" stop-color="rgb(81.434631%, 80.378723%, 80.378723%)" offset="0.671875"/><stop stop-opacity="1" stop-color="rgb(81.192017%, 80.111694%, 80.111694%)" offset="0.6875"/><stop stop-opacity="1" stop-color="rgb(80.949402%, 79.844666%, 79.844666%)" offset="0.703125"/><stop stop-opacity="1" stop-color="rgb(80.706787%, 79.577637%, 79.577637%)" offset="0.71875"/><stop stop-opacity="1" stop-color="rgb(80.464172%, 79.310608%, 79.310608%)" offset="0.734375"/><stop stop-opacity="1" stop-color="rgb(80.221558%, 79.042053%, 79.042053%)" offset="0.75"/><stop stop-opacity="1" stop-color="rgb(79.980469%, 78.775024%, 78.775024%)" offset="0.765625"/><stop stop-opacity="1" stop-color="rgb(79.737854%, 78.507996%, 78.507996%)" offset="0.78125"/><stop stop-opacity="1" stop-color="rgb(79.495239%, 78.240967%, 78.240967%)" offset="0.796875"/><stop stop-opacity="1" stop-color="rgb(79.252625%, 77.973938%, 77.973938%)" offset="0.8125"/><stop stop-opacity="1" stop-color="rgb(79.01001%, 77.706909%, 77.706909%)" offset="0.828125"/><stop stop-opacity="1" stop-color="rgb(78.767395%, 77.43988%, 77.43988%)" offset="0.84375"/><stop stop-opacity="1" stop-color="rgb(78.52478%, 77.171326%, 77.171326%)" offset="0.859375"/><stop stop-opacity="1" stop-color="rgb(78.282166%, 76.904297%, 76.904297%)" offset="0.875"/><stop stop-opacity="1" stop-color="rgb(78.039551%, 76.637268%, 76.637268%)" offset="0.890625"/><stop stop-opacity="1" stop-color="rgb(77.796936%, 76.370239%, 76.370239%)" offset="0.90625"/><stop stop-opacity="1" stop-color="rgb(77.554321%, 76.10321%, 76.10321%)" offset="0.921875"/><stop stop-opacity="1" stop-color="rgb(77.311707%, 75.836182%, 75.836182%)" offset="0.9375"/><stop stop-opacity="1" stop-color="rgb(77.069092%, 75.569153%, 75.569153%)" offset="0.953125"/><stop stop-opacity="1" stop-color="rgb(76.826477%, 75.302124%, 75.302124%)" offset="0.96875"/><stop stop-opacity="1" stop-color="rgb(76.583862%, 75.033569%, 75.033569%)" offset="0.984375"/><stop stop-opacity="1" stop-color="rgb(76.342773%, 74.766541%, 74.766541%)" offset="1"/></linearGradient><clipPath id="bdede12cc7"><path d="M 77 71 L 298 71 L 298 292 L 77 292 Z M 77 71 " clip-rule="nonzero"/></clipPath><clipPath id="2e2dfa5e5c"><path d="M 93.761719 71.261719 L 281.121094 71.261719 C 281.65625 71.261719 282.191406 71.289062 282.726562 71.34375 C 283.261719 71.394531 283.789062 71.472656 284.316406 71.578125 C 284.84375 71.683594 285.363281 71.8125 285.875 71.96875 C 286.390625 72.125 286.894531 72.304688 287.390625 72.511719 C 287.886719 72.714844 288.371094 72.945312 288.84375 73.199219 C 289.316406 73.449219 289.777344 73.726562 290.222656 74.023438 C 290.667969 74.320312 291.097656 74.640625 291.511719 74.980469 C 291.925781 75.320312 292.324219 75.679688 292.703125 76.058594 C 293.082031 76.4375 293.445312 76.835938 293.785156 77.25 C 294.125 77.664062 294.445312 78.09375 294.742188 78.542969 C 295.039062 78.988281 295.316406 79.445312 295.566406 79.921875 C 295.820312 80.394531 296.050781 80.878906 296.253906 81.371094 C 296.460938 81.867188 296.640625 82.371094 296.796875 82.886719 C 296.953125 83.398438 297.082031 83.917969 297.1875 84.445312 C 297.292969 84.972656 297.371094 85.5 297.421875 86.035156 C 297.476562 86.566406 297.503906 87.101562 297.503906 87.640625 L 297.503906 274.921875 C 297.503906 275.460938 297.476562 275.996094 297.421875 276.527344 C 297.371094 277.0625 297.292969 277.59375 297.1875 278.117188 C 297.082031 278.644531 296.953125 279.164062 296.796875 279.675781 C 296.640625 280.191406 296.460938 280.695312 296.253906 281.191406 C 296.050781 281.6875 295.820312 282.171875 295.566406 282.644531 C 295.316406 283.117188 295.039062 283.574219 294.742188 284.023438 C 294.445312 284.46875 294.125 284.898438 293.785156 285.3125 C 293.445312 285.726562 293.082031 286.125 292.703125 286.503906 C 292.324219 286.882812 291.925781 287.242188 291.511719 287.582031 C 291.097656 287.921875 290.667969 288.242188 290.222656 288.539062 C 289.777344 288.835938 289.316406 289.113281 288.84375 289.367188 C 288.371094 289.617188 287.886719 289.847656 287.390625 290.054688 C 286.894531 290.257812 286.390625 290.4375 285.875 290.59375 C 285.363281 290.75 284.84375 290.878906 284.316406 290.984375 C 283.789062 291.089844 283.261719 291.167969 282.726562 291.222656 C 282.191406 291.273438 281.65625 291.300781 281.121094 291.300781 L 93.761719 291.300781 C 93.226562 291.300781 92.691406 291.273438 92.15625 291.222656 C 91.621094 291.167969 91.089844 291.089844 90.566406 290.984375 C 90.039062 290.878906 89.519531 290.75 89.007812 290.59375 C 88.492188 290.4375 87.988281 290.257812 87.492188 290.054688 C 86.996094 289.847656 86.511719 289.617188 86.039062 289.367188 C 85.566406 289.113281 85.105469 288.835938 84.660156 288.539062 C 84.214844 288.242188 83.785156 287.921875 83.367188 287.582031 C 82.953125 287.242188 82.558594 286.882812 82.175781 286.503906 C 81.796875 286.125 81.4375 285.726562 81.097656 285.3125 C 80.757812 284.898438 80.4375 284.46875 80.140625 284.023438 C 79.84375 283.574219 79.566406 283.117188 79.3125 282.644531 C 79.058594 282.171875 78.832031 281.6875 78.625 281.191406 C 78.421875 280.695312 78.238281 280.191406 78.085938 279.675781 C 77.929688 279.164062 77.796875 278.644531 77.695312 278.117188 C 77.589844 277.59375 77.511719 277.0625 77.457031 276.527344 C 77.40625 275.996094 77.378906 275.460938 77.378906 274.921875 L 77.378906 87.640625 C 77.378906 87.101562 77.40625 86.566406 77.457031 86.035156 C 77.511719 85.5 77.589844 84.972656 77.695312 84.445312 C 77.796875 83.917969 77.929688 83.398438 78.085938 82.886719 C 78.238281 82.371094 78.421875 81.867188 78.625 81.371094 C 78.832031 80.878906 79.058594 80.394531 79.3125 79.921875 C 79.566406 79.445312 79.84375 78.988281 80.140625 78.542969 C 80.4375 78.09375 80.757812 77.664062 81.097656 77.25 C 81.4375 76.835938 81.796875 76.4375 82.175781 76.058594 C 82.558594 75.679688 82.953125 75.320312 83.367188 74.980469 C 83.785156 74.640625 84.214844 74.320312 84.660156 74.023438 C 85.105469 73.726562 85.566406 73.449219 86.039062 73.199219 C 86.511719 72.945312 86.996094 72.714844 87.492188 72.511719 C 87.988281 72.304688 88.492188 72.125 89.007812 71.96875 C 89.519531 71.8125 90.039062 71.683594 90.566406 71.578125 C 91.089844 71.472656 91.621094 71.394531 92.15625 71.34375 C 92.691406 71.289062 93.226562 71.261719 93.761719 71.261719 Z M 93.761719 71.261719 " clip-rule="nonzero"/></clipPath><linearGradient x1="250" gradientTransform="matrix(0.87103, 0, 0, 0.870685, -30.31688, -30.294769)" y1="369.357988" x2="250" gradientUnits="userSpaceOnUse" y2="116.641992" id="ec682c82f2"><stop stop-opacity="1" stop-color="rgb(91.165161%, 91.099548%, 91.099548%)" offset="0"/><stop stop-opacity="1" stop-color="rgb(91.05835%, 90.982056%, 90.982056%)" offset="0.015625"/><stop stop-opacity="1" stop-color="rgb(90.844727%, 90.74707%, 90.74707%)" offset="0.03125"/><stop stop-opacity="1" stop-color="rgb(90.632629%, 90.513611%, 90.513611%)" offset="0.046875"/><stop stop-opacity="1" stop-color="rgb(90.419006%, 90.278625%, 90.278625%)" offset="0.0625"/><stop stop-opacity="1" stop-color="rgb(90.205383%, 90.04364%, 90.04364%)" offset="0.078125"/><stop stop-opacity="1" stop-color="rgb(89.993286%, 89.808655%, 89.808655%)" offset="0.09375"/><stop stop-opacity="1" stop-color="rgb(89.779663%, 89.573669%, 89.573669%)" offset="0.109375"/><stop stop-opacity="1" stop-color="rgb(89.567566%, 89.34021%, 89.34021%)" offset="0.125"/><stop stop-opacity="1" stop-color="rgb(89.353943%, 89.105225%, 89.105225%)" offset="0.140625"/><stop stop-opacity="1" stop-color="rgb(89.14032%, 88.870239%, 88.870239%)" offset="0.15625"/><stop stop-opacity="1" stop-color="rgb(88.928223%, 88.635254%, 88.635254%)" offset="0.171875"/><stop stop-opacity="1" stop-color="rgb(88.7146%, 88.400269%, 88.400269%)" offset="0.1875"/><stop stop-opacity="1" stop-color="rgb(88.502502%, 88.166809%, 88.166809%)" offset="0.203125"/><stop stop-opacity="1" stop-color="rgb(88.288879%, 87.931824%, 87.931824%)" offset="0.21875"/><stop stop-opacity="1" stop-color="rgb(88.076782%, 87.696838%, 87.696838%)" offset="0.234375"/><stop stop-opacity="1" stop-color="rgb(87.863159%, 87.461853%, 87.461853%)" offset="0.25"/><stop stop-opacity="1" stop-color="rgb(87.649536%, 87.226868%, 87.226868%)" offset="0.265625"/><stop stop-opacity="1" stop-color="rgb(87.437439%, 86.993408%, 86.993408%)" offset="0.28125"/><stop stop-opacity="1" stop-color="rgb(87.223816%, 86.758423%, 86.758423%)" offset="0.296875"/><stop stop-opacity="1" stop-color="rgb(87.011719%, 86.523438%, 86.523438%)" offset="0.3125"/><stop stop-opacity="1" stop-color="rgb(86.798096%, 86.288452%, 86.288452%)" offset="0.328125"/><stop stop-opacity="1" stop-color="rgb(86.585999%, 86.053467%, 86.053467%)" offset="0.34375"/><stop stop-opacity="1" stop-color="rgb(86.372375%, 85.820007%, 85.820007%)" offset="0.359375"/><stop stop-opacity="1" stop-color="rgb(86.158752%, 85.585022%, 85.585022%)" offset="0.375"/><stop stop-opacity="1" stop-color="rgb(85.946655%, 85.350037%, 85.350037%)" offset="0.390625"/><stop stop-opacity="1" stop-color="rgb(85.733032%, 85.115051%, 85.115051%)" offset="0.40625"/><stop stop-opacity="1" stop-color="rgb(85.520935%, 84.880066%, 84.880066%)" offset="0.421875"/><stop stop-opacity="1" stop-color="rgb(85.307312%, 84.646606%, 84.646606%)" offset="0.4375"/><stop stop-opacity="1" stop-color="rgb(85.095215%, 84.411621%, 84.411621%)" offset="0.453125"/><stop stop-opacity="1" stop-color="rgb(84.881592%, 84.176636%, 84.176636%)" offset="0.46875"/><stop stop-opacity="1" stop-color="rgb(84.667969%, 83.94165%, 83.94165%)" offset="0.484375"/><stop stop-opacity="1" stop-color="rgb(84.455872%, 83.706665%, 83.706665%)" offset="0.5"/><stop stop-opacity="1" stop-color="rgb(84.242249%, 83.473206%, 83.473206%)" offset="0.515625"/><stop stop-opacity="1" stop-color="rgb(84.030151%, 83.23822%, 83.23822%)" offset="0.53125"/><stop stop-opacity="1" stop-color="rgb(83.816528%, 83.003235%, 83.003235%)" offset="0.546875"/><stop stop-opacity="1" stop-color="rgb(83.602905%, 82.76825%, 82.76825%)" offset="0.5625"/><stop stop-opacity="1" stop-color="rgb(83.390808%, 82.533264%, 82.533264%)" offset="0.578125"/><stop stop-opacity="1" stop-color="rgb(83.177185%, 82.299805%, 82.299805%)" offset="0.59375"/><stop stop-opacity="1" stop-color="rgb(82.965088%, 82.064819%, 82.064819%)" offset="0.609375"/><stop stop-opacity="1" stop-color="rgb(82.751465%, 81.829834%, 81.829834%)" offset="0.625"/><stop stop-opacity="1" stop-color="rgb(82.539368%, 81.594849%, 81.594849%)" offset="0.640625"/><stop stop-opacity="1" stop-color="rgb(82.325745%, 81.359863%, 81.359863%)" offset="0.65625"/><stop stop-opacity="1" stop-color="rgb(82.112122%, 81.126404%, 81.126404%)" offset="0.671875"/><stop stop-opacity="1" stop-color="rgb(81.900024%, 80.891418%, 80.891418%)" offset="0.6875"/><stop stop-opacity="1" stop-color="rgb(81.686401%, 80.656433%, 80.656433%)" offset="0.703125"/><stop stop-opacity="1" stop-color="rgb(81.474304%, 80.421448%, 80.421448%)" offset="0.71875"/><stop stop-opacity="1" stop-color="rgb(81.260681%, 80.186462%, 80.186462%)" offset="0.734375"/><stop stop-opacity="1" stop-color="rgb(81.048584%, 79.953003%, 79.953003%)" offset="0.75"/><stop stop-opacity="1" stop-color="rgb(80.834961%, 79.718018%, 79.718018%)" offset="0.765625"/><stop stop-opacity="1" stop-color="rgb(80.621338%, 79.483032%, 79.483032%)" offset="0.78125"/><stop stop-opacity="1" stop-color="rgb(80.409241%, 79.248047%, 79.248047%)" offset="0.796875"/><stop stop-opacity="1" stop-color="rgb(80.195618%, 79.013062%, 79.013062%)" offset="0.8125"/><stop stop-opacity="1" stop-color="rgb(79.983521%, 78.779602%, 78.779602%)" offset="0.828125"/><stop stop-opacity="1" stop-color="rgb(79.769897%, 78.544617%, 78.544617%)" offset="0.84375"/><stop stop-opacity="1" stop-color="rgb(79.556274%, 78.309631%, 78.309631%)" offset="0.859375"/><stop stop-opacity="1" stop-color="rgb(79.344177%, 78.074646%, 78.074646%)" offset="0.875"/><stop stop-opacity="1" stop-color="rgb(79.130554%, 77.839661%, 77.839661%)" offset="0.890625"/><stop stop-opacity="1" stop-color="rgb(78.918457%, 77.606201%, 77.606201%)" offset="0.90625"/><stop stop-opacity="1" stop-color="rgb(78.704834%, 77.371216%, 77.371216%)" offset="0.921875"/><stop stop-opacity="1" stop-color="rgb(78.492737%, 77.13623%, 77.13623%)" offset="0.9375"/><stop stop-opacity="1" stop-color="rgb(78.279114%, 76.901245%, 76.901245%)" offset="0.953125"/><stop stop-opacity="1" stop-color="rgb(78.065491%, 76.66626%, 76.66626%)" offset="0.96875"/><stop stop-opacity="1" stop-color="rgb(77.853394%, 76.4328%, 76.4328%)" offset="0.984375"/><stop stop-opacity="1" stop-color="rgb(77.639771%, 76.197815%, 76.197815%)" offset="1"/></linearGradient></defs><g clip-path="url(#8ff9e3d912)"><path fill="#aeadad" d="M 82.332031 43.171875 L 292.550781 43.171875 C 294.03125 43.171875 295.511719 43.246094 296.984375 43.390625 C 298.460938 43.535156 299.925781 43.753906 301.378906 44.042969 C 302.832031 44.332031 304.265625 44.691406 305.683594 45.121094 C 307.101562 45.550781 308.496094 46.050781 309.867188 46.617188 C 311.234375 47.183594 312.574219 47.816406 313.878906 48.511719 C 315.1875 49.210938 316.457031 49.972656 317.6875 50.796875 C 318.921875 51.617188 320.109375 52.5 321.253906 53.441406 C 322.402344 54.378906 323.496094 55.375 324.546875 56.421875 C 325.59375 57.46875 326.585938 58.5625 327.527344 59.710938 C 328.46875 60.855469 329.351562 62.042969 330.171875 63.273438 C 330.996094 64.507812 331.757812 65.777344 332.457031 67.082031 C 333.15625 68.386719 333.789062 69.726562 334.355469 71.09375 C 334.921875 72.464844 335.421875 73.855469 335.851562 75.273438 C 336.28125 76.691406 336.640625 78.125 336.929688 79.578125 C 337.21875 81.03125 337.4375 82.496094 337.582031 83.96875 C 337.726562 85.445312 337.800781 86.921875 337.800781 88.402344 L 337.800781 298.539062 C 337.800781 300.019531 337.726562 301.496094 337.582031 302.972656 C 337.4375 304.445312 337.21875 305.910156 336.929688 307.363281 C 336.640625 308.816406 336.28125 310.25 335.851562 311.667969 C 335.421875 313.085938 334.921875 314.480469 334.355469 315.847656 C 333.789062 317.214844 333.15625 318.554688 332.457031 319.859375 C 331.757812 321.167969 330.996094 322.4375 330.171875 323.667969 C 329.351562 324.898438 328.46875 326.085938 327.527344 327.234375 C 326.585938 328.378906 325.59375 329.472656 324.546875 330.523438 C 323.496094 331.570312 322.402344 332.5625 321.253906 333.503906 C 320.109375 334.441406 318.921875 335.324219 317.6875 336.148438 C 316.457031 336.96875 315.1875 337.730469 313.878906 338.429688 C 312.574219 339.128906 311.234375 339.757812 309.867188 340.328125 C 308.496094 340.894531 307.101562 341.390625 305.683594 341.820312 C 304.265625 342.253906 302.832031 342.613281 301.378906 342.902344 C 299.925781 343.191406 298.460938 343.40625 296.984375 343.550781 C 295.511719 343.695312 294.03125 343.769531 292.550781 343.769531 L 82.332031 343.769531 C 80.851562 343.769531 79.371094 343.695312 77.898438 343.550781 C 76.421875 343.40625 74.957031 343.191406 73.503906 342.902344 C 72.050781 342.613281 70.613281 342.253906 69.195312 341.820312 C 67.777344 341.390625 66.386719 340.894531 65.015625 340.328125 C 63.644531 339.757812 62.308594 339.128906 61 338.429688 C 59.695312 337.730469 58.425781 336.96875 57.191406 336.148438 C 55.960938 335.324219 54.773438 334.441406 53.625 333.503906 C 52.480469 332.5625 51.382812 331.570312 50.335938 330.523438 C 49.289062 329.472656 48.292969 328.378906 47.355469 327.234375 C 46.414062 326.085938 45.53125 324.898438 44.707031 323.667969 C 43.886719 322.4375 43.125 321.167969 42.425781 319.859375 C 41.726562 318.554688 41.09375 317.214844 40.527344 315.847656 C 39.960938 314.480469 39.460938 313.085938 39.03125 311.667969 C 38.601562 310.25 38.242188 308.816406 37.953125 307.363281 C 37.664062 305.910156 37.445312 304.445312 37.300781 302.972656 C 37.15625 301.496094 37.082031 300.019531 37.082031 298.539062 L 37.082031 88.402344 C 37.082031 86.921875 37.15625 85.445312 37.300781 83.96875 C 37.445312 82.496094 37.664062 81.03125 37.953125 79.578125 C 38.242188 78.125 38.601562 76.691406 39.03125 75.273438 C 39.460938 73.855469 39.960938 72.464844 40.527344 71.09375 C 41.09375 69.726562 41.726562 68.386719 42.425781 67.082031 C 43.125 65.777344 43.886719 64.507812 44.707031 63.273438 C 45.53125 62.042969 46.414062 60.855469 47.355469 59.710938 C 48.292969 58.566406 49.289062 57.46875 50.335938 56.421875 C 51.382812 55.375 52.480469 54.378906 53.625 53.441406 C 54.773438 52.5 55.960938 51.617188 57.191406 50.796875 C 58.425781 49.972656 59.695312 49.210938 61 48.511719 C 62.308594 47.816406 63.644531 47.183594 65.015625 46.617188 C 66.386719 46.050781 67.777344 45.550781 69.195312 45.121094 C 70.613281 44.691406 72.050781 44.332031 73.503906 44.042969 C 74.957031 43.753906 76.421875 43.535156 77.898438 43.390625 C 79.371094 43.246094 80.851562 43.171875 82.332031 43.171875 Z M 82.332031 43.171875 " fill-opacity="1" fill-rule="nonzero"/></g><g clip-path="url(#561908aa48)"><g clip-path="url(#068a358ce7)"><path fill="url(#ffad512e06)" d="M 37.082031 31 L 37.082031 331.582031 L 337.800781 331.582031 L 337.800781 31 Z M 37.082031 31 " fill-rule="nonzero"/></g></g><g clip-path="url(#bdede12cc7)"><g clip-path="url(#2e2dfa5e5c)"><path fill="url(#ec682c82f2)" d="M 77.378906 71.261719 L 77.378906 291.300781 L 297.503906 291.300781 L 297.503906 71.261719 Z M 77.378906 71.261719 " fill-rule="nonzero"/></g></g><path fill="#b3afaf" d="M 281.121094 291.734375 L 93.761719 291.734375 C 93.210938 291.734375 92.660156 291.707031 92.113281 291.652344 C 91.566406 291.597656 91.023438 291.515625 90.480469 291.410156 C 89.941406 291.300781 89.410156 291.167969 88.882812 291.007812 C 88.355469 290.847656 87.835938 290.660156 87.328125 290.449219 C 86.820312 290.238281 86.324219 290.003906 85.835938 289.746094 C 85.351562 289.484375 84.878906 289.203125 84.421875 288.894531 C 83.964844 288.589844 83.523438 288.261719 83.097656 287.914062 C 82.671875 287.5625 82.265625 287.195312 81.875 286.804688 C 81.484375 286.417969 81.117188 286.007812 80.765625 285.582031 C 80.417969 285.15625 80.089844 284.714844 79.785156 284.257812 C 79.476562 283.800781 79.195312 283.328125 78.933594 282.84375 C 78.675781 282.359375 78.441406 281.863281 78.230469 281.355469 C 78.019531 280.847656 77.832031 280.328125 77.671875 279.800781 C 77.511719 279.273438 77.378906 278.742188 77.269531 278.203125 C 77.160156 277.664062 77.082031 277.117188 77.027344 276.570312 C 76.972656 276.023438 76.945312 275.472656 76.945312 274.921875 L 76.945312 87.640625 C 76.945312 87.089844 76.972656 86.539062 77.027344 85.992188 C 77.082031 85.445312 77.160156 84.902344 77.269531 84.359375 C 77.378906 83.820312 77.511719 83.289062 77.671875 82.761719 C 77.832031 82.234375 78.019531 81.71875 78.230469 81.210938 C 78.441406 80.699219 78.675781 80.203125 78.933594 79.71875 C 79.195312 79.234375 79.476562 78.761719 79.785156 78.304688 C 80.089844 77.847656 80.417969 77.40625 80.765625 76.980469 C 81.117188 76.554688 81.484375 76.148438 81.875 75.757812 C 82.265625 75.367188 82.671875 75 83.097656 74.648438 C 83.523438 74.300781 83.964844 73.972656 84.421875 73.667969 C 84.878906 73.363281 85.351562 73.078125 85.835938 72.820312 C 86.324219 72.558594 86.820312 72.324219 87.328125 72.113281 C 87.835938 71.902344 88.355469 71.714844 88.882812 71.554688 C 89.410156 71.394531 89.941406 71.261719 90.480469 71.15625 C 91.023438 71.046875 91.566406 70.964844 92.113281 70.910156 C 92.660156 70.855469 93.210938 70.828125 93.761719 70.828125 L 281.121094 70.828125 C 281.671875 70.828125 282.21875 70.855469 282.769531 70.910156 C 283.316406 70.964844 283.859375 71.046875 284.398438 71.15625 C 284.941406 71.261719 285.472656 71.394531 286 71.554688 C 286.527344 71.714844 287.042969 71.902344 287.554688 72.113281 C 288.0625 72.324219 288.558594 72.558594 289.042969 72.820312 C 289.53125 73.078125 290 73.363281 290.460938 73.667969 C 290.917969 73.972656 291.359375 74.300781 291.785156 74.648438 C 292.210938 75 292.617188 75.367188 293.007812 75.757812 C 293.394531 76.148438 293.765625 76.554688 294.113281 76.980469 C 294.464844 77.40625 294.792969 77.847656 295.097656 78.304688 C 295.402344 78.761719 295.6875 79.234375 295.945312 79.71875 C 296.207031 80.203125 296.441406 80.699219 296.652344 81.210938 C 296.863281 81.71875 297.050781 82.234375 297.210938 82.761719 C 297.371094 83.289062 297.503906 83.820312 297.613281 84.359375 C 297.71875 84.902344 297.800781 85.445312 297.855469 85.992188 C 297.910156 86.539062 297.9375 87.089844 297.9375 87.640625 L 297.9375 274.921875 C 297.9375 275.472656 297.910156 276.023438 297.855469 276.570312 C 297.800781 277.117188 297.71875 277.664062 297.613281 278.203125 C 297.503906 278.742188 297.371094 279.273438 297.210938 279.800781 C 297.050781 280.328125 296.863281 280.847656 296.652344 281.355469 C 296.441406 281.863281 296.207031 282.359375 295.945312 282.84375 C 295.6875 283.328125 295.402344 283.800781 295.097656 284.257812 C 294.792969 284.714844 294.464844 285.15625 294.113281 285.582031 C 293.765625 286.007812 293.394531 286.417969 293.007812 286.804688 C 292.617188 287.195312 292.210938 287.5625 291.785156 287.914062 C 291.359375 288.261719 290.917969 288.589844 290.460938 288.894531 C 290 289.203125 289.53125 289.484375 289.042969 289.746094 C 288.558594 290.003906 288.0625 290.238281 287.554688 290.449219 C 287.042969 290.660156 286.527344 290.847656 286 291.007812 C 285.472656 291.167969 284.941406 291.300781 284.398438 291.410156 C 283.859375 291.515625 283.316406 291.597656 282.769531 291.652344 C 282.21875 291.707031 281.671875 291.734375 281.121094 291.734375 Z M 93.761719 71.699219 C 93.238281 71.699219 92.71875 71.726562 92.199219 71.777344 C 91.679688 71.828125 91.164062 71.90625 90.652344 72.007812 C 90.140625 72.109375 89.632812 72.238281 89.132812 72.390625 C 88.636719 72.542969 88.144531 72.71875 87.660156 72.917969 C 87.179688 73.117188 86.707031 73.339844 86.246094 73.585938 C 85.789062 73.832031 85.339844 74.101562 84.90625 74.390625 C 84.472656 74.679688 84.054688 74.992188 83.648438 75.324219 C 83.246094 75.652344 82.859375 76.003906 82.492188 76.375 C 82.121094 76.742188 81.769531 77.128906 81.441406 77.53125 C 81.109375 77.933594 80.796875 78.355469 80.507812 78.789062 C 80.21875 79.222656 79.949219 79.667969 79.703125 80.128906 C 79.457031 80.589844 79.234375 81.058594 79.035156 81.542969 C 78.832031 82.023438 78.65625 82.515625 78.503906 83.015625 C 78.351562 83.511719 78.226562 84.019531 78.125 84.53125 C 78.023438 85.042969 77.945312 85.558594 77.894531 86.078125 C 77.839844 86.597656 77.816406 87.117188 77.816406 87.640625 L 77.816406 274.921875 C 77.816406 275.445312 77.839844 275.964844 77.894531 276.484375 C 77.945312 277.003906 78.023438 277.519531 78.125 278.03125 C 78.226562 278.542969 78.351562 279.050781 78.503906 279.550781 C 78.65625 280.046875 78.832031 280.539062 79.035156 281.019531 C 79.234375 281.503906 79.457031 281.972656 79.703125 282.433594 C 79.949219 282.894531 80.21875 283.339844 80.507812 283.777344 C 80.796875 284.210938 81.109375 284.628906 81.441406 285.03125 C 81.769531 285.433594 82.121094 285.820312 82.492188 286.191406 C 82.859375 286.558594 83.246094 286.910156 83.648438 287.242188 C 84.054688 287.570312 84.472656 287.882812 84.90625 288.171875 C 85.339844 288.460938 85.789062 288.730469 86.246094 288.976562 C 86.707031 289.222656 87.179688 289.445312 87.660156 289.644531 C 88.144531 289.847656 88.636719 290.023438 89.132812 290.171875 C 89.632812 290.324219 90.140625 290.453125 90.652344 290.554688 C 91.164062 290.65625 91.679688 290.734375 92.199219 290.785156 C 92.71875 290.835938 93.238281 290.863281 93.761719 290.863281 L 281.121094 290.863281 C 281.640625 290.863281 282.164062 290.835938 282.683594 290.785156 C 283.203125 290.734375 283.71875 290.65625 284.230469 290.554688 C 284.742188 290.453125 285.246094 290.324219 285.746094 290.171875 C 286.246094 290.023438 286.738281 289.847656 287.21875 289.644531 C 287.703125 289.445312 288.171875 289.222656 288.632812 288.976562 C 289.09375 288.730469 289.542969 288.460938 289.976562 288.171875 C 290.410156 287.882812 290.828125 287.570312 291.230469 287.242188 C 291.636719 286.910156 292.023438 286.558594 292.390625 286.191406 C 292.761719 285.820312 293.109375 285.433594 293.441406 285.03125 C 293.773438 284.628906 294.082031 284.210938 294.375 283.777344 C 294.664062 283.339844 294.933594 282.894531 295.179688 282.433594 C 295.425781 281.972656 295.648438 281.503906 295.847656 281.019531 C 296.046875 280.539062 296.222656 280.046875 296.375 279.550781 C 296.527344 279.050781 296.65625 278.542969 296.757812 278.03125 C 296.859375 277.519531 296.9375 277.003906 296.988281 276.484375 C 297.039062 275.964844 297.066406 275.445312 297.066406 274.921875 L 297.066406 87.640625 C 297.066406 87.117188 297.039062 86.597656 296.988281 86.078125 C 296.9375 85.558594 296.859375 85.042969 296.757812 84.53125 C 296.65625 84.019531 296.527344 83.511719 296.375 83.015625 C 296.222656 82.515625 296.046875 82.023438 295.847656 81.542969 C 295.648438 81.058594 295.425781 80.589844 295.179688 80.128906 C 294.933594 79.667969 294.664062 79.222656 294.375 78.789062 C 294.082031 78.355469 293.773438 77.933594 293.441406 77.53125 C 293.109375 77.128906 292.761719 76.742188 292.390625 76.375 C 292.023438 76.003906 291.636719 75.652344 291.230469 75.324219 C 290.828125 74.992188 290.410156 74.679688 289.976562 74.390625 C 289.542969 74.101562 289.09375 73.832031 288.632812 73.585938 C 288.171875 73.339844 287.703125 73.117188 287.21875 72.917969 C 286.738281 72.71875 286.246094 72.542969 285.746094 72.390625 C 285.246094 72.238281 284.742188 72.109375 284.230469 72.007812 C 283.71875 71.90625 283.203125 71.828125 282.683594 71.777344 C 282.164062 71.726562 281.640625 71.699219 281.121094 71.699219 Z M 93.761719 71.699219 " fill-opacity="1" fill-rule="nonzero"/><path fill="#444040" d="M 213.972656 212.828125 L 229.472656 137.027344 L 246.839844 137.027344 L 223.589844 237.726562 L 206.847656 237.726562 L 187.683594 164.207031 L 168.105469 237.726562 L 151.292969 237.726562 L 128.042969 137.027344 L 145.410156 137.027344 L 161.046875 212.691406 L 180.28125 137.027344 L 194.945312 137.027344 Z M 213.972656 212.828125 " fill-opacity="1" fill-rule="nonzero"/></svg>