<svg xmlns="http://www.w3.org/2000/svg" xmlns:xlink="http://www.w3.org/1999/xlink" width="500" zoomAndPan="magnify" viewBox="0 0 375 374.999991" height="500" preserveAspectRatio="xMidYMid meet" version="1.0"><defs><clipPath id="2f379c9104"><path d="M 36.78125 43 L 337.53125 43 L 337.53125 343.828125 L 36.78125 343.828125 Z M 36.78125 43 " clip-rule="nonzero"/></clipPath><clipPath id="9dd54b826f"><path d="M 36.78125 31.078125 L 337.53125 31.078125 L 337.53125 332 L 36.78125 332 Z M 36.78125 31.078125 " clip-rule="nonzero"/></clipPath><clipPath id="262b5b8be0"><path d="M 82.050781 31.0625 L 292.265625 31.0625 C 293.746094 31.0625 295.222656 31.132812 296.699219 31.277344 C 298.175781 31.425781 299.636719 31.640625 301.089844 31.929688 C 302.546875 32.21875 303.980469 32.578125 305.398438 33.007812 C 306.816406 33.4375 308.210938 33.9375 309.578125 34.503906 C 310.949219 35.070312 312.289062 35.703125 313.59375 36.402344 C 314.902344 37.101562 316.171875 37.859375 317.402344 38.683594 C 318.636719 39.507812 319.824219 40.390625 320.96875 41.328125 C 322.113281 42.269531 323.210938 43.261719 324.257812 44.308594 C 325.308594 45.355469 326.300781 46.453125 327.242188 47.597656 C 328.183594 48.742188 329.0625 49.933594 329.886719 51.164062 C 330.710938 52.394531 331.472656 53.664062 332.167969 54.972656 C 332.867188 56.277344 333.5 57.613281 334.066406 58.984375 C 334.636719 60.351562 335.132812 61.746094 335.5625 63.164062 C 335.996094 64.582031 336.355469 66.015625 336.644531 67.46875 C 336.933594 68.921875 337.148438 70.386719 337.292969 71.859375 C 337.441406 73.332031 337.511719 74.8125 337.511719 76.292969 L 337.511719 286.425781 C 337.511719 287.910156 337.441406 289.386719 337.292969 290.859375 C 337.148438 292.335938 336.933594 293.796875 336.644531 295.25 C 336.355469 296.703125 335.996094 298.140625 335.5625 299.558594 C 335.132812 300.976562 334.636719 302.367188 334.066406 303.738281 C 333.5 305.105469 332.867188 306.441406 332.167969 307.75 C 331.472656 309.054688 330.710938 310.324219 329.886719 311.554688 C 329.0625 312.789062 328.183594 313.976562 327.242188 315.121094 C 326.300781 316.265625 325.308594 317.363281 324.257812 318.410156 C 323.210938 319.457031 322.113281 320.453125 320.96875 321.390625 C 319.824219 322.332031 318.636719 323.210938 317.402344 324.035156 C 316.171875 324.859375 314.902344 325.621094 313.59375 326.316406 C 312.289062 327.015625 310.949219 327.648438 309.578125 328.214844 C 308.210938 328.78125 306.816406 329.28125 305.398438 329.710938 C 303.980469 330.140625 302.546875 330.5 301.089844 330.789062 C 299.636719 331.078125 298.175781 331.296875 296.699219 331.441406 C 295.222656 331.585938 293.746094 331.660156 292.265625 331.660156 L 82.050781 331.660156 C 80.566406 331.660156 79.089844 331.585938 77.613281 331.441406 C 76.140625 331.296875 74.675781 331.078125 73.222656 330.789062 C 71.769531 330.5 70.332031 330.140625 68.914062 329.710938 C 67.496094 329.28125 66.101562 328.78125 64.734375 328.214844 C 63.363281 327.648438 62.027344 327.015625 60.71875 326.316406 C 59.414062 325.621094 58.144531 324.859375 56.910156 324.035156 C 55.679688 323.210938 54.492188 322.332031 53.34375 321.390625 C 52.199219 320.453125 51.101562 319.457031 50.054688 318.410156 C 49.007812 317.363281 48.011719 316.265625 47.074219 315.121094 C 46.132812 313.976562 45.25 312.789062 44.425781 311.554688 C 43.605469 310.324219 42.84375 309.054688 42.144531 307.75 C 41.445312 306.441406 40.8125 305.105469 40.246094 303.738281 C 39.679688 302.367188 39.179688 300.976562 38.75 299.558594 C 38.320312 298.140625 37.960938 296.703125 37.671875 295.25 C 37.382812 293.796875 37.164062 292.335938 37.019531 290.859375 C 36.875 289.386719 36.800781 287.910156 36.800781 286.425781 L 36.800781 76.292969 C 36.800781 74.8125 36.875 73.332031 37.019531 71.859375 C 37.164062 70.386719 37.382812 68.921875 37.671875 67.46875 C 37.960938 66.015625 38.320312 64.582031 38.75 63.164062 C 39.179688 61.746094 39.679688 60.351562 40.246094 58.984375 C 40.8125 57.613281 41.445312 56.277344 42.144531 54.972656 C 42.84375 53.664062 43.605469 52.394531 44.425781 51.164062 C 45.25 49.933594 46.132812 48.742188 47.074219 47.597656 C 48.011719 46.453125 49.007812 45.355469 50.054688 44.308594 C 51.101562 43.261719 52.199219 42.269531 53.34375 41.328125 C 54.492188 40.390625 55.679688 39.507812 56.910156 38.683594 C 58.144531 37.859375 59.414062 37.101562 60.71875 36.402344 C 62.027344 35.703125 63.363281 35.070312 64.734375 34.503906 C 66.101562 33.9375 67.496094 33.4375 68.914062 33.007812 C 70.332031 32.578125 71.769531 32.21875 73.222656 31.929688 C 74.675781 31.640625 76.140625 31.425781 77.613281 31.277344 C 79.089844 31.132812 80.566406 31.0625 82.050781 31.0625 Z M 82.050781 31.0625 " clip-rule="nonzero"/></clipPath><linearGradient x1="250" gradientTransform="matrix(0.871015, 0, 0, 0.870685, -30.596684, -30.216459)" y1="70.4" x2="250" gradientUnits="userSpaceOnUse" y2="415.620988" id="1a2e941811"><stop stop-opacity="1" stop-color="rgb(91.741943%, 91.737366%, 91.737366%)" offset="0"/><stop stop-opacity="1" stop-color="rgb(91.619873%, 91.603088%, 91.603088%)" offset="0.015625"/><stop stop-opacity="1" stop-color="rgb(91.377258%, 91.334534%, 91.334534%)" offset="0.03125"/><stop stop-opacity="1" stop-color="rgb(91.136169%, 91.067505%, 91.067505%)" offset="0.046875"/><stop stop-opacity="1" stop-color="rgb(90.893555%, 90.800476%, 90.800476%)" offset="0.0625"/><stop stop-opacity="1" stop-color="rgb(90.65094%, 90.533447%, 90.533447%)" offset="0.078125"/><stop stop-opacity="1" stop-color="rgb(90.408325%, 90.266418%, 90.266418%)" offset="0.09375"/><stop stop-opacity="1" stop-color="rgb(90.16571%, 89.99939%, 89.99939%)" offset="0.109375"/><stop stop-opacity="1" stop-color="rgb(89.923096%, 89.732361%, 89.732361%)" offset="0.125"/><stop stop-opacity="1" stop-color="rgb(89.680481%, 89.465332%, 89.465332%)" offset="0.140625"/><stop stop-opacity="1" stop-color="rgb(89.437866%, 89.196777%, 89.196777%)" offset="0.15625"/><stop stop-opacity="1" stop-color="rgb(89.195251%, 88.929749%, 88.929749%)" offset="0.171875"/><stop stop-opacity="1" stop-color="rgb(88.952637%, 88.66272%, 88.66272%)" offset="0.1875"/><stop stop-opacity="1" stop-color="rgb(88.710022%, 88.395691%, 88.395691%)" offset="0.203125"/><stop stop-opacity="1" stop-color="rgb(88.467407%, 88.128662%, 88.128662%)" offset="0.21875"/><stop stop-opacity="1" stop-color="rgb(88.224792%, 87.861633%, 87.861633%)" offset="0.234375"/><stop stop-opacity="1" stop-color="rgb(87.982178%, 87.594604%, 87.594604%)" offset="0.25"/><stop stop-opacity="1" stop-color="rgb(87.739563%, 87.32605%, 87.32605%)" offset="0.265625"/><stop stop-opacity="1" stop-color="rgb(87.498474%, 87.059021%, 87.059021%)" offset="0.28125"/><stop stop-opacity="1" stop-color="rgb(87.255859%, 86.791992%, 86.791992%)" offset="0.296875"/><stop stop-opacity="1" stop-color="rgb(87.013245%, 86.524963%, 86.524963%)" offset="0.3125"/><stop stop-opacity="1" stop-color="rgb(86.77063%, 86.257935%, 86.257935%)" offset="0.328125"/><stop stop-opacity="1" stop-color="rgb(86.528015%, 85.990906%, 85.990906%)" offset="0.34375"/><stop stop-opacity="1" stop-color="rgb(86.2854%, 85.723877%, 85.723877%)" offset="0.359375"/><stop stop-opacity="1" stop-color="rgb(86.042786%, 85.456848%, 85.456848%)" offset="0.375"/><stop stop-opacity="1" stop-color="rgb(85.800171%, 85.188293%, 85.188293%)" offset="0.390625"/><stop stop-opacity="1" stop-color="rgb(85.557556%, 84.921265%, 84.921265%)" offset="0.40625"/><stop stop-opacity="1" stop-color="rgb(85.314941%, 84.654236%, 84.654236%)" offset="0.421875"/><stop stop-opacity="1" stop-color="rgb(85.072327%, 84.387207%, 84.387207%)" offset="0.4375"/><stop stop-opacity="1" stop-color="rgb(84.829712%, 84.120178%, 84.120178%)" offset="0.453125"/><stop stop-opacity="1" stop-color="rgb(84.587097%, 83.853149%, 83.853149%)" offset="0.46875"/><stop stop-opacity="1" stop-color="rgb(84.344482%, 83.586121%, 83.586121%)" offset="0.484375"/><stop stop-opacity="1" stop-color="rgb(84.101868%, 83.317566%, 83.317566%)" offset="0.5"/><stop stop-opacity="1" stop-color="rgb(83.860779%, 83.050537%, 83.050537%)" offset="0.515625"/><stop stop-opacity="1" stop-color="rgb(83.618164%, 82.783508%, 82.783508%)" offset="0.53125"/><stop stop-opacity="1" stop-color="rgb(83.375549%, 82.516479%, 82.516479%)" offset="0.546875"/><stop stop-opacity="1" stop-color="rgb(83.132935%, 82.249451%, 82.249451%)" offset="0.5625"/><stop stop-opacity="1" stop-color="rgb(82.89032%, 81.982422%, 81.982422%)" offset="0.578125"/><stop stop-opacity="1" stop-color="rgb(82.647705%, 81.715393%, 81.715393%)" offset="0.59375"/><stop stop-opacity="1" stop-color="rgb(82.40509%, 81.448364%, 81.448364%)" offset="0.609375"/><stop stop-opacity="1" stop-color="rgb(82.162476%, 81.17981%, 81.17981%)" offset="0.625"/><stop stop-opacity="1" stop-color="rgb(81.919861%, 80.912781%, 80.912781%)" offset="0.640625"/><stop stop-opacity="1" stop-color="rgb(81.677246%, 80.645752%, 80.645752%)" offset="0.65625"/><stop stop-opacity="1" stop-color="rgb(81.434631%, 80.378723%, 80.378723%)" offset="0.671875"/><stop stop-opacity="1" stop-color="rgb(81.192017%, 80.111694%, 80.111694%)" offset="0.6875"/><stop stop-opacity="1" stop-color="rgb(80.949402%, 79.844666%, 79.844666%)" offset="0.703125"/><stop stop-opacity="1" stop-color="rgb(80.706787%, 79.577637%, 79.577637%)" offset="0.71875"/><stop stop-opacity="1" stop-color="rgb(80.464172%, 79.310608%, 79.310608%)" offset="0.734375"/><stop stop-opacity="1" stop-color="rgb(80.221558%, 79.042053%, 79.042053%)" offset="0.75"/><stop stop-opacity="1" stop-color="rgb(79.980469%, 78.775024%, 78.775024%)" offset="0.765625"/><stop stop-opacity="1" stop-color="rgb(79.737854%, 78.507996%, 78.507996%)" offset="0.78125"/><stop stop-opacity="1" stop-color="rgb(79.495239%, 78.240967%, 78.240967%)" offset="0.796875"/><stop stop-opacity="1" stop-color="rgb(79.252625%, 77.973938%, 77.973938%)" offset="0.8125"/><stop stop-opacity="1" stop-color="rgb(79.01001%, 77.706909%, 77.706909%)" offset="0.828125"/><stop stop-opacity="1" stop-color="rgb(78.767395%, 77.43988%, 77.43988%)" offset="0.84375"/><stop stop-opacity="1" stop-color="rgb(78.52478%, 77.171326%, 77.171326%)" offset="0.859375"/><stop stop-opacity="1" stop-color="rgb(78.282166%, 76.904297%, 76.904297%)" offset="0.875"/><stop stop-opacity="1" stop-color="rgb(78.039551%, 76.637268%, 76.637268%)" offset="0.890625"/><stop stop-opacity="1" stop-color="rgb(77.796936%, 76.370239%, 76.370239%)" offset="0.90625"/><stop stop-opacity="1" stop-color="rgb(77.554321%, 76.10321%, 76.10321%)" offset="0.921875"/><stop stop-opacity="1" stop-color="rgb(77.311707%, 75.836182%, 75.836182%)" offset="0.9375"/><stop stop-opacity="1" stop-color="rgb(77.069092%, 75.569153%, 75.569153%)" offset="0.953125"/><stop stop-opacity="1" stop-color="rgb(76.826477%, 75.302124%, 75.302124%)" offset="0.96875"/><stop stop-opacity="1" stop-color="rgb(76.583862%, 75.033569%, 75.033569%)" offset="0.984375"/><stop stop-opacity="1" stop-color="rgb(76.342773%, 74.766541%, 74.766541%)" offset="1"/></linearGradient><clipPath id="3e932ec87d"><path d="M 77 71 L 298 71 L 298 292 L 77 292 Z M 77 71 " clip-rule="nonzero"/></clipPath><clipPath id="ff1fce61a9"><path d="M 93.480469 71.34375 L 280.835938 71.34375 C 281.371094 71.34375 281.90625 71.367188 282.441406 71.421875 C 282.972656 71.472656 283.503906 71.550781 284.03125 71.65625 C 284.558594 71.761719 285.078125 71.890625 285.589844 72.046875 C 286.105469 72.203125 286.609375 72.382812 287.105469 72.589844 C 287.597656 72.792969 288.082031 73.023438 288.558594 73.277344 C 289.03125 73.527344 289.488281 73.804688 289.9375 74.101562 C 290.382812 74.398438 290.8125 74.71875 291.226562 75.058594 C 291.640625 75.398438 292.039062 75.757812 292.417969 76.136719 C 292.796875 76.515625 293.15625 76.914062 293.5 77.328125 C 293.839844 77.742188 294.15625 78.175781 294.457031 78.621094 C 294.753906 79.066406 295.03125 79.523438 295.28125 80 C 295.535156 80.472656 295.765625 80.957031 295.96875 81.449219 C 296.175781 81.945312 296.355469 82.449219 296.511719 82.964844 C 296.667969 83.476562 296.796875 83.996094 296.902344 84.523438 C 297.007812 85.050781 297.085938 85.578125 297.136719 86.113281 C 297.191406 86.644531 297.21875 87.179688 297.214844 87.71875 L 297.214844 275.003906 C 297.21875 275.539062 297.191406 276.074219 297.136719 276.605469 C 297.085938 277.140625 297.007812 277.671875 296.902344 278.195312 C 296.796875 278.722656 296.667969 279.242188 296.511719 279.753906 C 296.355469 280.269531 296.175781 280.773438 295.96875 281.269531 C 295.765625 281.765625 295.535156 282.25 295.28125 282.722656 C 295.03125 283.195312 294.753906 283.652344 294.457031 284.101562 C 294.15625 284.546875 293.839844 284.976562 293.5 285.390625 C 293.15625 285.804688 292.796875 286.203125 292.417969 286.582031 C 292.039062 286.960938 291.640625 287.320312 291.226562 287.660156 C 290.8125 288 290.382812 288.320312 289.9375 288.617188 C 289.488281 288.917969 289.03125 289.191406 288.558594 289.445312 C 288.082031 289.695312 287.597656 289.925781 287.105469 290.132812 C 286.609375 290.335938 286.105469 290.515625 285.589844 290.671875 C 285.078125 290.828125 284.558594 290.957031 284.03125 291.0625 C 283.503906 291.167969 282.972656 291.246094 282.441406 291.300781 C 281.90625 291.351562 281.371094 291.378906 280.835938 291.378906 L 93.480469 291.378906 C 92.941406 291.378906 92.40625 291.351562 91.875 291.300781 C 91.339844 291.246094 90.808594 291.167969 90.285156 291.0625 C 89.757812 290.957031 89.238281 290.828125 88.722656 290.671875 C 88.210938 290.515625 87.707031 290.335938 87.210938 290.132812 C 86.714844 289.925781 86.230469 289.695312 85.757812 289.445312 C 85.285156 289.191406 84.824219 288.917969 84.378906 288.617188 C 83.933594 288.320312 83.5 288 83.085938 287.660156 C 82.671875 287.320312 82.273438 286.960938 81.894531 286.582031 C 81.515625 286.203125 81.15625 285.804688 80.816406 285.390625 C 80.476562 284.976562 80.15625 284.546875 79.859375 284.101562 C 79.558594 283.652344 79.285156 283.195312 79.03125 282.722656 C 78.777344 282.25 78.550781 281.765625 78.34375 281.269531 C 78.140625 280.773438 77.957031 280.269531 77.804688 279.753906 C 77.648438 279.242188 77.515625 278.722656 77.414062 278.195312 C 77.308594 277.671875 77.230469 277.140625 77.175781 276.605469 C 77.125 276.074219 77.097656 275.539062 77.097656 275.003906 L 77.097656 87.71875 C 77.097656 87.179688 77.125 86.644531 77.175781 86.113281 C 77.230469 85.578125 77.308594 85.050781 77.414062 84.523438 C 77.515625 83.996094 77.648438 83.476562 77.804688 82.964844 C 77.957031 82.449219 78.140625 81.945312 78.34375 81.449219 C 78.550781 80.957031 78.777344 80.472656 79.03125 80 C 79.285156 79.523438 79.558594 79.066406 79.859375 78.621094 C 80.15625 78.175781 80.476562 77.742188 80.816406 77.328125 C 81.15625 76.914062 81.515625 76.515625 81.894531 76.136719 C 82.273438 75.757812 82.671875 75.398438 83.085938 75.058594 C 83.5 74.71875 83.933594 74.398438 84.378906 74.101562 C 84.824219 73.804688 85.285156 73.527344 85.757812 73.277344 C 86.230469 73.023438 86.714844 72.792969 87.210938 72.589844 C 87.707031 72.382812 88.210938 72.203125 88.722656 72.046875 C 89.238281 71.890625 89.757812 71.761719 90.285156 71.65625 C 90.808594 71.550781 91.339844 71.472656 91.875 71.421875 C 92.40625 71.367188 92.941406 71.34375 93.480469 71.34375 Z M 93.480469 71.34375 " clip-rule="nonzero"/></clipPath><linearGradient x1="250" gradientTransform="matrix(0.871015, 0, 0, 0.870685, -30.596684, -30.216459)" y1="369.357989" x2="250" gradientUnits="userSpaceOnUse" y2="116.641993" id="5f7d8e1f2f"><stop stop-opacity="1" stop-color="rgb(91.165161%, 91.099548%, 91.099548%)" offset="0"/><stop stop-opacity="1" stop-color="rgb(91.05835%, 90.982056%, 90.982056%)" offset="0.015625"/><stop stop-opacity="1" stop-color="rgb(90.844727%, 90.74707%, 90.74707%)" offset="0.03125"/><stop stop-opacity="1" stop-color="rgb(90.632629%, 90.513611%, 90.513611%)" offset="0.046875"/><stop stop-opacity="1" stop-color="rgb(90.419006%, 90.278625%, 90.278625%)" offset="0.0625"/><stop stop-opacity="1" stop-color="rgb(90.205383%, 90.04364%, 90.04364%)" offset="0.078125"/><stop stop-opacity="1" stop-color="rgb(89.993286%, 89.808655%, 89.808655%)" offset="0.09375"/><stop stop-opacity="1" stop-color="rgb(89.779663%, 89.573669%, 89.573669%)" offset="0.109375"/><stop stop-opacity="1" stop-color="rgb(89.567566%, 89.34021%, 89.34021%)" offset="0.125"/><stop stop-opacity="1" stop-color="rgb(89.353943%, 89.105225%, 89.105225%)" offset="0.140625"/><stop stop-opacity="1" stop-color="rgb(89.14032%, 88.870239%, 88.870239%)" offset="0.15625"/><stop stop-opacity="1" stop-color="rgb(88.928223%, 88.635254%, 88.635254%)" offset="0.171875"/><stop stop-opacity="1" stop-color="rgb(88.7146%, 88.400269%, 88.400269%)" offset="0.1875"/><stop stop-opacity="1" stop-color="rgb(88.502502%, 88.166809%, 88.166809%)" offset="0.203125"/><stop stop-opacity="1" stop-color="rgb(88.288879%, 87.931824%, 87.931824%)" offset="0.21875"/><stop stop-opacity="1" stop-color="rgb(88.076782%, 87.696838%, 87.696838%)" offset="0.234375"/><stop stop-opacity="1" stop-color="rgb(87.863159%, 87.461853%, 87.461853%)" offset="0.25"/><stop stop-opacity="1" stop-color="rgb(87.649536%, 87.226868%, 87.226868%)" offset="0.265625"/><stop stop-opacity="1" stop-color="rgb(87.437439%, 86.993408%, 86.993408%)" offset="0.28125"/><stop stop-opacity="1" stop-color="rgb(87.223816%, 86.758423%, 86.758423%)" offset="0.296875"/><stop stop-opacity="1" stop-color="rgb(87.011719%, 86.523438%, 86.523438%)" offset="0.3125"/><stop stop-opacity="1" stop-color="rgb(86.798096%, 86.288452%, 86.288452%)" offset="0.328125"/><stop stop-opacity="1" stop-color="rgb(86.585999%, 86.053467%, 86.053467%)" offset="0.34375"/><stop stop-opacity="1" stop-color="rgb(86.372375%, 85.820007%, 85.820007%)" offset="0.359375"/><stop stop-opacity="1" stop-color="rgb(86.158752%, 85.585022%, 85.585022%)" offset="0.375"/><stop stop-opacity="1" stop-color="rgb(85.946655%, 85.350037%, 85.350037%)" offset="0.390625"/><stop stop-opacity="1" stop-color="rgb(85.733032%, 85.115051%, 85.115051%)" offset="0.40625"/><stop stop-opacity="1" stop-color="rgb(85.520935%, 84.880066%, 84.880066%)" offset="0.421875"/><stop stop-opacity="1" stop-color="rgb(85.307312%, 84.646606%, 84.646606%)" offset="0.4375"/><stop stop-opacity="1" stop-color="rgb(85.095215%, 84.411621%, 84.411621%)" offset="0.453125"/><stop stop-opacity="1" stop-color="rgb(84.881592%, 84.176636%, 84.176636%)" offset="0.46875"/><stop stop-opacity="1" stop-color="rgb(84.667969%, 83.94165%, 83.94165%)" offset="0.484375"/><stop stop-opacity="1" stop-color="rgb(84.455872%, 83.706665%, 83.706665%)" offset="0.5"/><stop stop-opacity="1" stop-color="rgb(84.242249%, 83.473206%, 83.473206%)" offset="0.515625"/><stop stop-opacity="1" stop-color="rgb(84.030151%, 83.23822%, 83.23822%)" offset="0.53125"/><stop stop-opacity="1" stop-color="rgb(83.816528%, 83.003235%, 83.003235%)" offset="0.546875"/><stop stop-opacity="1" stop-color="rgb(83.602905%, 82.76825%, 82.76825%)" offset="0.5625"/><stop stop-opacity="1" stop-color="rgb(83.390808%, 82.533264%, 82.533264%)" offset="0.578125"/><stop stop-opacity="1" stop-color="rgb(83.177185%, 82.299805%, 82.299805%)" offset="0.59375"/><stop stop-opacity="1" stop-color="rgb(82.965088%, 82.064819%, 82.064819%)" offset="0.609375"/><stop stop-opacity="1" stop-color="rgb(82.751465%, 81.829834%, 81.829834%)" offset="0.625"/><stop stop-opacity="1" stop-color="rgb(82.539368%, 81.594849%, 81.594849%)" offset="0.640625"/><stop stop-opacity="1" stop-color="rgb(82.325745%, 81.359863%, 81.359863%)" offset="0.65625"/><stop stop-opacity="1" stop-color="rgb(82.112122%, 81.126404%, 81.126404%)" offset="0.671875"/><stop stop-opacity="1" stop-color="rgb(81.900024%, 80.891418%, 80.891418%)" offset="0.6875"/><stop stop-opacity="1" stop-color="rgb(81.686401%, 80.656433%, 80.656433%)" offset="0.703125"/><stop stop-opacity="1" stop-color="rgb(81.474304%, 80.421448%, 80.421448%)" offset="0.71875"/><stop stop-opacity="1" stop-color="rgb(81.260681%, 80.186462%, 80.186462%)" offset="0.734375"/><stop stop-opacity="1" stop-color="rgb(81.048584%, 79.953003%, 79.953003%)" offset="0.75"/><stop stop-opacity="1" stop-color="rgb(80.834961%, 79.718018%, 79.718018%)" offset="0.765625"/><stop stop-opacity="1" stop-color="rgb(80.621338%, 79.483032%, 79.483032%)" offset="0.78125"/><stop stop-opacity="1" stop-color="rgb(80.409241%, 79.248047%, 79.248047%)" offset="0.796875"/><stop stop-opacity="1" stop-color="rgb(80.195618%, 79.013062%, 79.013062%)" offset="0.8125"/><stop stop-opacity="1" stop-color="rgb(79.983521%, 78.779602%, 78.779602%)" offset="0.828125"/><stop stop-opacity="1" stop-color="rgb(79.769897%, 78.544617%, 78.544617%)" offset="0.84375"/><stop stop-opacity="1" stop-color="rgb(79.556274%, 78.309631%, 78.309631%)" offset="0.859375"/><stop stop-opacity="1" stop-color="rgb(79.344177%, 78.074646%, 78.074646%)" offset="0.875"/><stop stop-opacity="1" stop-color="rgb(79.130554%, 77.839661%, 77.839661%)" offset="0.890625"/><stop stop-opacity="1" stop-color="rgb(78.918457%, 77.606201%, 77.606201%)" offset="0.90625"/><stop stop-opacity="1" stop-color="rgb(78.704834%, 77.371216%, 77.371216%)" offset="0.921875"/><stop stop-opacity="1" stop-color="rgb(78.492737%, 77.13623%, 77.13623%)" offset="0.9375"/><stop stop-opacity="1" stop-color="rgb(78.279114%, 76.901245%, 76.901245%)" offset="0.953125"/><stop stop-opacity="1" stop-color="rgb(78.065491%, 76.66626%, 76.66626%)" offset="0.96875"/><stop stop-opacity="1" stop-color="rgb(77.853394%, 76.4328%, 76.4328%)" offset="0.984375"/><stop stop-opacity="1" stop-color="rgb(77.639771%, 76.197815%, 76.197815%)" offset="1"/></linearGradient></defs><g clip-path="url(#2f379c9104)"><path fill="#aeadad" d="M 82.050781 43.25 L 292.265625 43.25 C 293.746094 43.25 295.222656 43.324219 296.699219 43.46875 C 298.175781 43.613281 299.636719 43.832031 301.089844 44.121094 C 302.546875 44.410156 303.980469 44.769531 305.398438 45.199219 C 306.816406 45.628906 308.210938 46.128906 309.578125 46.695312 C 310.949219 47.261719 312.289062 47.894531 313.59375 48.59375 C 314.902344 49.289062 316.171875 50.050781 317.402344 50.875 C 318.636719 51.695312 319.824219 52.578125 320.96875 53.519531 C 322.113281 54.457031 323.210938 55.453125 324.257812 56.5 C 325.308594 57.546875 326.300781 58.644531 327.242188 59.789062 C 328.183594 60.933594 329.0625 62.121094 329.886719 63.351562 C 330.710938 64.585938 331.472656 65.855469 332.167969 67.160156 C 332.867188 68.46875 333.5 69.804688 334.066406 71.171875 C 334.636719 72.542969 335.132812 73.933594 335.5625 75.351562 C 335.996094 76.769531 336.355469 78.207031 336.644531 79.65625 C 336.933594 81.109375 337.148438 82.574219 337.292969 84.046875 C 337.441406 85.523438 337.511719 87 337.511719 88.480469 L 337.511719 298.617188 C 337.511719 300.097656 337.441406 301.574219 337.292969 303.050781 C 337.148438 304.523438 336.933594 305.988281 336.644531 307.441406 C 336.355469 308.894531 335.996094 310.328125 335.5625 311.746094 C 335.132812 313.164062 334.636719 314.558594 334.066406 315.925781 C 333.5 317.292969 332.867188 318.632812 332.167969 319.9375 C 331.472656 321.246094 330.710938 322.515625 329.886719 323.746094 C 329.0625 324.976562 328.183594 326.167969 327.242188 327.3125 C 326.300781 328.457031 325.308594 329.550781 324.257812 330.601562 C 323.210938 331.648438 322.113281 332.640625 320.96875 333.582031 C 319.824219 334.519531 318.636719 335.402344 317.402344 336.226562 C 316.171875 337.046875 314.902344 337.808594 313.59375 338.507812 C 312.289062 339.207031 310.949219 339.839844 309.578125 340.40625 C 308.210938 340.972656 306.816406 341.46875 305.398438 341.898438 C 303.980469 342.332031 302.546875 342.691406 301.089844 342.980469 C 299.636719 343.269531 298.175781 343.484375 296.699219 343.628906 C 295.222656 343.773438 293.746094 343.847656 292.265625 343.847656 L 82.050781 343.847656 C 80.566406 343.847656 79.089844 343.777344 77.613281 343.628906 C 76.140625 343.484375 74.675781 343.269531 73.222656 342.980469 C 71.769531 342.691406 70.332031 342.332031 68.914062 341.898438 C 67.496094 341.46875 66.101562 340.972656 64.734375 340.40625 C 63.363281 339.839844 62.027344 339.207031 60.71875 338.507812 C 59.414062 337.808594 58.144531 337.046875 56.910156 336.226562 C 55.679688 335.402344 54.492188 334.519531 53.34375 333.582031 C 52.199219 332.640625 51.101562 331.648438 50.054688 330.601562 C 49.007812 329.550781 48.011719 328.457031 47.074219 327.3125 C 46.132812 326.167969 45.25 324.976562 44.425781 323.746094 C 43.605469 322.515625 42.84375 321.246094 42.144531 319.9375 C 41.445312 318.632812 40.8125 317.292969 40.246094 315.925781 C 39.679688 314.558594 39.179688 313.164062 38.75 311.746094 C 38.320312 310.328125 37.960938 308.894531 37.671875 307.441406 C 37.382812 305.988281 37.164062 304.523438 37.019531 303.050781 C 36.875 301.574219 36.800781 300.097656 36.800781 298.617188 L 36.800781 88.480469 C 36.800781 87 36.875 85.523438 37.019531 84.046875 C 37.164062 82.574219 37.382812 81.109375 37.671875 79.65625 C 37.960938 78.207031 38.320312 76.769531 38.75 75.351562 C 39.179688 73.933594 39.679688 72.542969 40.246094 71.171875 C 40.8125 69.804688 41.445312 68.46875 42.144531 67.160156 C 42.84375 65.855469 43.605469 64.585938 44.425781 63.351562 C 45.25 62.121094 46.132812 60.933594 47.074219 59.789062 C 48.011719 58.644531 49.007812 57.546875 50.054688 56.5 C 51.101562 55.453125 52.199219 54.457031 53.34375 53.519531 C 54.492188 52.578125 55.679688 51.695312 56.910156 50.875 C 58.144531 50.050781 59.414062 49.289062 60.71875 48.59375 C 62.027344 47.894531 63.363281 47.261719 64.734375 46.695312 C 66.101562 46.128906 67.496094 45.628906 68.914062 45.199219 C 70.332031 44.769531 71.769531 44.410156 73.222656 44.121094 C 74.675781 43.832031 76.140625 43.613281 77.613281 43.46875 C 79.089844 43.324219 80.566406 43.25 82.050781 43.25 Z M 82.050781 43.25 " fill-opacity="1" fill-rule="nonzero"/></g><g clip-path="url(#9dd54b826f)"><g clip-path="url(#262b5b8be0)"><path fill="url(#1a2e941811)" d="M 36.800781 31.078125 L 36.800781 331.660156 L 337.511719 331.660156 L 337.511719 31.078125 Z M 36.800781 31.078125 " fill-rule="nonzero"/></g></g><g clip-path="url(#3e932ec87d)"><g clip-path="url(#ff1fce61a9)"><path fill="url(#5f7d8e1f2f)" d="M 77.097656 71.34375 L 77.097656 291.378906 L 297.21875 291.378906 L 297.21875 71.34375 Z M 77.097656 71.34375 " fill-rule="nonzero"/></g></g><path fill="#b3afaf" d="M 280.835938 291.8125 L 93.480469 291.8125 C 92.929688 291.8125 92.378906 291.785156 91.832031 291.730469 C 91.285156 291.675781 90.738281 291.59375 90.199219 291.488281 C 89.660156 291.378906 89.125 291.246094 88.601562 291.085938 C 88.074219 290.925781 87.554688 290.738281 87.046875 290.527344 C 86.539062 290.316406 86.039062 290.082031 85.554688 289.824219 C 85.070312 289.5625 84.597656 289.28125 84.140625 288.972656 C 83.683594 288.667969 83.242188 288.339844 82.816406 287.992188 C 82.390625 287.640625 81.984375 287.273438 81.59375 286.882812 C 81.203125 286.496094 80.835938 286.085938 80.484375 285.660156 C 80.136719 285.238281 79.808594 284.792969 79.503906 284.335938 C 79.195312 283.878906 78.914062 283.410156 78.652344 282.921875 C 78.394531 282.4375 78.15625 281.941406 77.945312 281.433594 C 77.734375 280.925781 77.550781 280.40625 77.390625 279.878906 C 77.230469 279.351562 77.097656 278.820312 76.988281 278.28125 C 76.878906 277.742188 76.800781 277.195312 76.746094 276.648438 C 76.691406 276.101562 76.664062 275.550781 76.660156 275.003906 L 76.660156 87.71875 C 76.664062 87.167969 76.691406 86.617188 76.746094 86.070312 C 76.800781 85.523438 76.878906 84.980469 76.988281 84.4375 C 77.097656 83.898438 77.230469 83.367188 77.390625 82.839844 C 77.550781 82.3125 77.734375 81.796875 77.945312 81.289062 C 78.15625 80.777344 78.394531 80.28125 78.652344 79.796875 C 78.914062 79.3125 79.195312 78.839844 79.503906 78.382812 C 79.808594 77.925781 80.136719 77.484375 80.484375 77.058594 C 80.835938 76.632812 81.203125 76.226562 81.59375 75.835938 C 81.984375 75.445312 82.390625 75.078125 82.816406 74.726562 C 83.242188 74.378906 83.683594 74.050781 84.140625 73.746094 C 84.597656 73.441406 85.070312 73.15625 85.554688 72.898438 C 86.039062 72.636719 86.539062 72.402344 87.046875 72.191406 C 87.554688 71.980469 88.074219 71.792969 88.601562 71.632812 C 89.125 71.472656 89.660156 71.339844 90.199219 71.234375 C 90.738281 71.125 91.285156 71.042969 91.832031 70.988281 C 92.378906 70.933594 92.929688 70.90625 93.480469 70.90625 L 280.835938 70.90625 C 281.386719 70.90625 281.933594 70.933594 282.484375 70.988281 C 283.03125 71.042969 283.574219 71.125 284.113281 71.234375 C 284.652344 71.339844 285.1875 71.472656 285.714844 71.632812 C 286.242188 71.792969 286.757812 71.980469 287.265625 72.191406 C 287.777344 72.402344 288.273438 72.636719 288.757812 72.898438 C 289.246094 73.15625 289.714844 73.441406 290.171875 73.746094 C 290.632812 74.050781 291.074219 74.378906 291.5 74.726562 C 291.925781 75.078125 292.332031 75.445312 292.722656 75.835938 C 293.109375 76.226562 293.480469 76.632812 293.828125 77.058594 C 294.179688 77.484375 294.507812 77.925781 294.8125 78.382812 C 295.117188 78.839844 295.402344 79.3125 295.660156 79.796875 C 295.921875 80.28125 296.15625 80.777344 296.367188 81.289062 C 296.578125 81.796875 296.761719 82.3125 296.921875 82.839844 C 297.085938 83.367188 297.21875 83.898438 297.324219 84.4375 C 297.433594 84.980469 297.515625 85.523438 297.570312 86.070312 C 297.625 86.617188 297.652344 87.167969 297.652344 87.71875 L 297.652344 275.003906 C 297.652344 275.550781 297.625 276.101562 297.570312 276.648438 C 297.515625 277.195312 297.433594 277.742188 297.324219 278.28125 C 297.21875 278.820312 297.085938 279.351562 296.921875 279.878906 C 296.761719 280.40625 296.578125 280.925781 296.367188 281.433594 C 296.15625 281.941406 295.921875 282.4375 295.660156 282.921875 C 295.402344 283.410156 295.117188 283.878906 294.8125 284.335938 C 294.507812 284.792969 294.179688 285.238281 293.828125 285.660156 C 293.480469 286.085938 293.109375 286.496094 292.722656 286.882812 C 292.332031 287.273438 291.925781 287.640625 291.5 287.992188 C 291.074219 288.339844 290.632812 288.667969 290.171875 288.972656 C 289.714844 289.28125 289.246094 289.5625 288.757812 289.824219 C 288.273438 290.082031 287.777344 290.316406 287.265625 290.527344 C 286.757812 290.738281 286.242188 290.925781 285.714844 291.085938 C 285.1875 291.246094 284.652344 291.378906 284.113281 291.488281 C 283.574219 291.59375 283.03125 291.675781 282.484375 291.730469 C 281.933594 291.785156 281.386719 291.8125 280.835938 291.8125 Z M 93.480469 71.777344 C 92.957031 71.777344 92.4375 71.804688 91.917969 71.855469 C 91.398438 71.90625 90.882812 71.984375 90.371094 72.085938 C 89.859375 72.1875 89.351562 72.316406 88.851562 72.46875 C 88.351562 72.621094 87.863281 72.796875 87.378906 72.996094 C 86.898438 73.195312 86.425781 73.417969 85.964844 73.664062 C 85.503906 73.910156 85.058594 74.179688 84.625 74.46875 C 84.191406 74.757812 83.769531 75.070312 83.367188 75.402344 C 82.964844 75.730469 82.578125 76.082031 82.207031 76.453125 C 81.839844 76.820312 81.488281 77.207031 81.15625 77.609375 C 80.828125 78.011719 80.515625 78.433594 80.226562 78.867188 C 79.9375 79.300781 79.667969 79.746094 79.421875 80.207031 C 79.175781 80.667969 78.953125 81.136719 78.75 81.621094 C 78.550781 82.101562 78.375 82.59375 78.222656 83.09375 C 78.070312 83.59375 77.945312 84.097656 77.84375 84.609375 C 77.738281 85.121094 77.664062 85.636719 77.609375 86.15625 C 77.558594 86.675781 77.535156 87.195312 77.53125 87.71875 L 77.53125 275.003906 C 77.535156 275.523438 77.558594 276.042969 77.609375 276.5625 C 77.664062 277.082031 77.738281 277.597656 77.84375 278.109375 C 77.945312 278.621094 78.070312 279.128906 78.222656 279.628906 C 78.375 280.125 78.550781 280.617188 78.75 281.097656 C 78.953125 281.582031 79.175781 282.050781 79.421875 282.511719 C 79.667969 282.972656 79.9375 283.421875 80.226562 283.855469 C 80.515625 284.289062 80.828125 284.707031 81.15625 285.109375 C 81.488281 285.511719 81.839844 285.898438 82.207031 286.269531 C 82.578125 286.636719 82.964844 286.988281 83.367188 287.320312 C 83.769531 287.648438 84.191406 287.960938 84.625 288.25 C 85.058594 288.539062 85.503906 288.808594 85.964844 289.054688 C 86.425781 289.300781 86.898438 289.523438 87.378906 289.722656 C 87.863281 289.925781 88.351562 290.101562 88.851562 290.253906 C 89.351562 290.402344 89.859375 290.53125 90.371094 290.632812 C 90.882812 290.734375 91.398438 290.8125 91.917969 290.863281 C 92.4375 290.914062 92.957031 290.941406 93.480469 290.941406 L 280.835938 290.941406 C 281.355469 290.941406 281.878906 290.914062 282.398438 290.863281 C 282.917969 290.8125 283.433594 290.734375 283.945312 290.632812 C 284.457031 290.53125 284.960938 290.402344 285.460938 290.253906 C 285.960938 290.101562 286.453125 289.925781 286.933594 289.722656 C 287.417969 289.523438 287.886719 289.300781 288.347656 289.054688 C 288.808594 288.808594 289.253906 288.539062 289.691406 288.25 C 290.125 287.960938 290.542969 287.648438 290.945312 287.320312 C 291.351562 286.988281 291.734375 286.636719 292.105469 286.269531 C 292.472656 285.898438 292.824219 285.511719 293.15625 285.109375 C 293.488281 284.707031 293.796875 284.289062 294.089844 283.855469 C 294.378906 283.421875 294.648438 282.972656 294.894531 282.511719 C 295.140625 282.050781 295.363281 281.582031 295.5625 281.097656 C 295.761719 280.617188 295.9375 280.125 296.089844 279.628906 C 296.242188 279.128906 296.371094 278.621094 296.472656 278.109375 C 296.574219 277.597656 296.652344 277.082031 296.703125 276.5625 C 296.753906 276.042969 296.78125 275.523438 296.78125 275.003906 L 296.78125 87.71875 C 296.78125 87.195312 296.753906 86.675781 296.703125 86.15625 C 296.652344 85.636719 296.574219 85.121094 296.472656 84.609375 C 296.371094 84.097656 296.242188 83.59375 296.089844 83.09375 C 295.9375 82.59375 295.761719 82.101562 295.5625 81.621094 C 295.363281 81.136719 295.140625 80.667969 294.894531 80.207031 C 294.648438 79.746094 294.378906 79.300781 294.089844 78.867188 C 293.796875 78.433594 293.488281 78.011719 293.15625 77.609375 C 292.824219 77.207031 292.472656 76.820312 292.105469 76.453125 C 291.734375 76.082031 291.351562 75.730469 290.945312 75.402344 C 290.542969 75.070312 290.125 74.757812 289.691406 74.46875 C 289.253906 74.179688 288.808594 73.910156 288.347656 73.664062 C 287.886719 73.417969 287.417969 73.195312 286.933594 72.996094 C 286.453125 72.796875 285.960938 72.621094 285.460938 72.46875 C 284.960938 72.316406 284.457031 72.1875 283.945312 72.085938 C 283.433594 71.984375 282.917969 71.90625 282.398438 71.855469 C 281.878906 71.804688 281.355469 71.777344 280.835938 71.777344 Z M 93.480469 71.777344 " fill-opacity="1" fill-rule="nonzero"/><path fill="#444040" d="M 213.199219 195.132812 L 172.660156 195.132812 L 172.660156 237.804688 L 155.160156 237.804688 L 155.160156 137.105469 L 219.15625 137.105469 L 219.15625 151.210938 L 172.660156 151.210938 L 172.660156 181.15625 L 213.199219 181.15625 Z M 213.199219 195.132812 " fill-opacity="1" fill-rule="nonzero"/></svg>